<svg width="300" height="395" viewBox="0 0 300 395" fill="none" xmlns="http://www.w3.org/2000/svg">
<path d="M262.5 131.61H243.75V94.1099C243.75 42.3599 201.75 0.359863 150 0.359863C98.25 0.359863 56.25 42.3599 56.25 94.1099V131.61H37.5C16.875 131.61 0 148.485 0 169.11V356.61C0 377.235 16.875 394.11 37.5 394.11H262.5C283.125 394.11 300 377.235 300 356.61V169.11C300 148.485 283.125 131.61 262.5 131.61ZM150 300.36C129.375 300.36 112.5 283.485 112.5 262.86C112.5 242.235 129.375 225.36 150 225.36C170.625 225.36 187.5 242.235 187.5 262.86C187.5 283.485 170.625 300.36 150 300.36ZM208.125 131.61H91.875V94.1099C91.875 62.0474 117.937 35.9849 150 35.9849C182.063 35.9849 208.125 62.0474 208.125 94.1099V131.61Z" fill="white" fill-opacity="0.1"/>
</svg>
