<svg width="231" height="196" viewBox="0 0 231 196" fill="none" xmlns="http://www.w3.org/2000/svg">
<g opacity="0.2">
<circle cx="11" cy="11" r="11" transform="matrix(-1 0 0 1 22 0)" fill="url(#paint0_linear_1_703)"/>
<circle cx="11" cy="11" r="11" transform="matrix(-1 0 0 1 80 0)" fill="url(#paint1_linear_1_703)"/>
<circle cx="11" cy="11" r="11" transform="matrix(-1 0 0 1 138 0)" fill="url(#paint2_linear_1_703)"/>
<circle cx="11" cy="11" r="11" transform="matrix(-1 0 0 1 196 0)" fill="url(#paint3_linear_1_703)"/>
<circle cx="11" cy="11" r="11" transform="matrix(-1 0 0 1 22 58)" fill="url(#paint4_linear_1_703)"/>
<circle cx="11" cy="11" r="11" transform="matrix(-1 0 0 1 80 58)" fill="url(#paint5_linear_1_703)"/>
<circle cx="11" cy="11" r="11" transform="matrix(-1 0 0 1 138 58)" fill="url(#paint6_linear_1_703)"/>
<circle cx="11" cy="11" r="11" transform="matrix(-1 0 0 1 196 58)" fill="url(#paint7_linear_1_703)"/>
<circle cx="11" cy="11" r="11" transform="matrix(-1 0 0 1 22 116)" fill="url(#paint8_linear_1_703)"/>
<circle cx="11" cy="11" r="11" transform="matrix(-1 0 0 1 80 116)" fill="url(#paint9_linear_1_703)"/>
<circle cx="11" cy="11" r="11" transform="matrix(-1 0 0 1 138 116)" fill="url(#paint10_linear_1_703)"/>
<circle cx="11" cy="11" r="11" transform="matrix(-1 0 0 1 196 116)" fill="url(#paint11_linear_1_703)"/>
<circle cx="11" cy="11" r="11" transform="matrix(-1 0 0 1 22 174)" fill="url(#paint12_linear_1_703)"/>
<circle cx="11" cy="11" r="11" transform="matrix(-1 0 0 1 80 174)" fill="url(#paint13_linear_1_703)"/>
<circle cx="11" cy="11" r="11" transform="matrix(-1 0 0 1 138 174)" fill="url(#paint14_linear_1_703)"/>
<circle cx="11" cy="11" r="11" transform="matrix(-1 0 0 1 196 174)" fill="url(#paint15_linear_1_703)"/>
</g>
<defs>
<linearGradient id="paint0_linear_1_703" x1="3.28736" y1="-4.125" x2="28.1613" y2="-0.667037" gradientUnits="userSpaceOnUse">
<stop stop-color="#486EB9"/>
<stop offset="1" stop-color="#D12865"/>
</linearGradient>
<linearGradient id="paint1_linear_1_703" x1="3.28736" y1="-4.125" x2="28.1613" y2="-0.667037" gradientUnits="userSpaceOnUse">
<stop stop-color="#486EB9"/>
<stop offset="1" stop-color="#D12865"/>
</linearGradient>
<linearGradient id="paint2_linear_1_703" x1="3.28736" y1="-4.125" x2="28.1613" y2="-0.667037" gradientUnits="userSpaceOnUse">
<stop stop-color="#486EB9"/>
<stop offset="1" stop-color="#D12865"/>
</linearGradient>
<linearGradient id="paint3_linear_1_703" x1="3.28736" y1="-4.125" x2="28.1613" y2="-0.667037" gradientUnits="userSpaceOnUse">
<stop stop-color="#486EB9"/>
<stop offset="1" stop-color="#D12865"/>
</linearGradient>
<linearGradient id="paint4_linear_1_703" x1="3.28736" y1="-4.125" x2="28.1613" y2="-0.667037" gradientUnits="userSpaceOnUse">
<stop stop-color="#486EB9"/>
<stop offset="1" stop-color="#D12865"/>
</linearGradient>
<linearGradient id="paint5_linear_1_703" x1="3.28736" y1="-4.125" x2="28.1613" y2="-0.667037" gradientUnits="userSpaceOnUse">
<stop stop-color="#486EB9"/>
<stop offset="1" stop-color="#D12865"/>
</linearGradient>
<linearGradient id="paint6_linear_1_703" x1="3.28736" y1="-4.125" x2="28.1613" y2="-0.667037" gradientUnits="userSpaceOnUse">
<stop stop-color="#486EB9"/>
<stop offset="1" stop-color="#D12865"/>
</linearGradient>
<linearGradient id="paint7_linear_1_703" x1="3.28736" y1="-4.125" x2="28.1613" y2="-0.667037" gradientUnits="userSpaceOnUse">
<stop stop-color="#486EB9"/>
<stop offset="1" stop-color="#D12865"/>
</linearGradient>
<linearGradient id="paint8_linear_1_703" x1="3.28736" y1="-4.125" x2="28.1613" y2="-0.667037" gradientUnits="userSpaceOnUse">
<stop stop-color="#486EB9"/>
<stop offset="1" stop-color="#D12865"/>
</linearGradient>
<linearGradient id="paint9_linear_1_703" x1="3.28736" y1="-4.125" x2="28.1613" y2="-0.667037" gradientUnits="userSpaceOnUse">
<stop stop-color="#486EB9"/>
<stop offset="1" stop-color="#D12865"/>
</linearGradient>
<linearGradient id="paint10_linear_1_703" x1="3.28736" y1="-4.125" x2="28.1613" y2="-0.667037" gradientUnits="userSpaceOnUse">
<stop stop-color="#486EB9"/>
<stop offset="1" stop-color="#D12865"/>
</linearGradient>
<linearGradient id="paint11_linear_1_703" x1="3.28736" y1="-4.125" x2="28.1613" y2="-0.667037" gradientUnits="userSpaceOnUse">
<stop stop-color="#486EB9"/>
<stop offset="1" stop-color="#D12865"/>
</linearGradient>
<linearGradient id="paint12_linear_1_703" x1="3.28736" y1="-4.125" x2="28.1613" y2="-0.667037" gradientUnits="userSpaceOnUse">
<stop stop-color="#486EB9"/>
<stop offset="1" stop-color="#D12865"/>
</linearGradient>
<linearGradient id="paint13_linear_1_703" x1="3.28736" y1="-4.125" x2="28.1613" y2="-0.667037" gradientUnits="userSpaceOnUse">
<stop stop-color="#486EB9"/>
<stop offset="1" stop-color="#D12865"/>
</linearGradient>
<linearGradient id="paint14_linear_1_703" x1="3.28736" y1="-4.125" x2="28.1613" y2="-0.667037" gradientUnits="userSpaceOnUse">
<stop stop-color="#486EB9"/>
<stop offset="1" stop-color="#D12865"/>
</linearGradient>
<linearGradient id="paint15_linear_1_703" x1="3.28736" y1="-4.125" x2="28.1613" y2="-0.667037" gradientUnits="userSpaceOnUse">
<stop stop-color="#486EB9"/>
<stop offset="1" stop-color="#D12865"/>
</linearGradient>
</defs>
</svg>
