<svg width="37" height="36" viewBox="0 0 37 36" fill="none" xmlns="http://www.w3.org/2000/svg">
<path d="M18.5415 0H18.4596C8.544 0 0.505859 7.99552 0.505859 17.8585V17.94C0.505859 27.803 8.544 35.7985 18.4596 35.7985H18.5415C28.4571 35.7985 36.4952 27.803 36.4952 17.94V17.8585C36.4952 7.99552 28.4571 0 18.5415 0Z" fill="#383D38"/>
<path d="M27.5064 9.68096C25.8496 8.92468 24.0743 8.36782 22.217 8.04925C22.1829 8.04298 22.1489 8.05803 22.1325 8.08939C21.9043 8.49324 21.6508 9.02125 21.4743 9.43514C19.4771 9.13789 17.4899 9.13789 15.533 9.43514C15.3553 9.01122 15.093 8.49324 14.8635 8.08939C14.8459 8.05929 14.8118 8.04423 14.779 8.04925C12.923 8.36782 11.1464 8.92468 9.48964 9.68096C9.47577 9.68723 9.46316 9.69726 9.45433 9.71106C6.08525 14.7178 5.16226 19.6016 5.61492 24.4253C5.61744 24.4491 5.63005 24.4717 5.64896 24.4855C7.8719 26.1097 10.0255 27.0955 12.1388 27.7489C12.1728 27.7589 12.2081 27.7464 12.2295 27.7188C12.7288 27.0403 13.1752 26.3241 13.5573 25.5704C13.5799 25.5265 13.5572 25.4738 13.5118 25.4562C12.8045 25.1891 12.1324 24.8642 11.4843 24.4955C11.4326 24.4654 11.4289 24.3927 11.4755 24.3575C11.6117 24.256 11.7479 24.1506 11.8777 24.044C11.9017 24.0239 11.9345 24.0202 11.9622 24.0327C16.2152 25.9642 20.8199 25.9642 25.0225 24.0327C25.0502 24.0189 25.083 24.0239 25.1069 24.0427C25.2368 24.1494 25.373 24.256 25.5104 24.3575C25.5571 24.3927 25.5546 24.4654 25.5029 24.4955C24.856 24.8718 24.1827 25.1903 23.4741 25.4562C23.4274 25.4738 23.4073 25.5265 23.4299 25.5716C23.8208 26.3229 24.2659 27.039 24.7564 27.7188C24.7766 27.7476 24.8131 27.7602 24.8472 27.7501C26.9705 27.0967 29.1241 26.1109 31.347 24.4867C31.366 24.4729 31.3786 24.4504 31.3811 24.4278C31.9233 18.8516 30.4733 14.0079 27.5392 9.71357C27.5316 9.69977 27.5203 9.68849 27.5051 9.68222L27.5064 9.68096ZM14.1902 21.488C12.9091 21.488 11.8551 20.319 11.8551 18.883C11.8551 17.4469 12.8902 16.278 14.1902 16.278C15.4902 16.278 16.5468 17.4582 16.5253 18.883C16.5253 20.319 15.4902 21.488 14.1902 21.488ZM22.826 21.488C21.5449 21.488 20.4909 20.319 20.4909 18.883C20.4909 17.4469 21.526 16.278 22.826 16.278C24.1259 16.278 25.1826 17.4582 25.1611 18.883C25.1611 20.319 24.1373 21.488 22.826 21.488Z" fill="white"/>
</svg>
