<svg width="37" height="37" viewBox="0 0 37 37" fill="none" xmlns="http://www.w3.org/2000/svg">
<path d="M36.4928 18.6985C36.4928 27.7387 29.7559 35.2124 21.0041 36.4252C20.1858 36.5381 19.3485 36.5971 18.4987 36.5971C17.5177 36.5971 16.5544 36.5193 15.6163 36.3688C7.04862 34.9967 0.504639 27.607 0.504639 18.6985C0.504639 8.81289 8.56169 0.798584 18.5 0.798584C28.4383 0.798584 36.4953 8.81289 36.4953 18.6985H36.4928Z" fill="#383D38"/>
<path d="M21.0042 15.1715V19.0708H25.8535L25.0856 24.3234H21.0042V36.4251C20.1858 36.538 19.3486 36.597 18.4988 36.597C17.5178 36.597 16.5545 36.5192 15.6164 36.3687V24.3234H11.144V19.0708H15.6164V14.2999C15.6164 11.34 18.0285 8.93945 21.0054 8.93945V8.94196C21.0142 8.94196 21.0218 8.93945 21.0306 8.93945H25.8548V13.4822H22.7026C21.7657 13.4822 21.0054 14.2384 21.0054 15.1703L21.0042 15.1715Z" fill="white"/>
</svg>
