<svg width="37" height="37" viewBox="0 0 37 37" fill="none" xmlns="http://www.w3.org/2000/svg">
<path d="M18.5462 0.596924H18.4642C8.54866 0.596924 0.510498 8.59244 0.510498 18.4554V18.5369C0.510498 28.3999 8.54866 36.3954 18.4642 36.3954H18.5462C28.4617 36.3954 36.4999 28.3999 36.4999 18.5369V18.4554C36.4999 8.59244 28.4617 0.596924 18.5462 0.596924Z" fill="#383D38"/>
<path d="M24.0739 7.87988H12.9378C9.86125 7.87988 7.3584 10.3695 7.3584 13.4297V23.5636C7.3584 26.6238 9.86125 29.1134 12.9378 29.1134H24.0739C27.1505 29.1134 29.6533 26.6238 29.6533 23.5636V13.4297C29.6533 10.3695 27.1505 7.87988 24.0739 7.87988ZM9.32664 13.4297C9.32664 11.4493 10.9469 9.83768 12.9378 9.83768H24.0739C26.0649 9.83768 27.6851 11.4493 27.6851 13.4297V23.5636C27.6851 25.544 26.0649 27.1556 24.0739 27.1556H12.9378C10.9469 27.1556 9.32664 25.544 9.32664 23.5636V13.4297Z" fill="white"/>
<path d="M18.506 23.6578C21.3669 23.6578 23.6958 21.3425 23.6958 18.4955C23.6958 15.6485 21.3682 13.3333 18.506 13.3333C15.6438 13.3333 13.3162 15.6485 13.3162 18.4955C13.3162 21.3425 15.6438 23.6578 18.506 23.6578ZM18.506 15.2923C20.2825 15.2923 21.7275 16.7296 21.7275 18.4968C21.7275 20.2639 20.2825 21.7012 18.506 21.7012C16.7294 21.7012 15.2844 20.2639 15.2844 18.4968C15.2844 16.7296 16.7294 15.2923 18.506 15.2923Z" fill="white"/>
<path d="M24.1766 14.1681C24.9472 14.1681 25.5753 13.5446 25.5753 12.7768C25.5753 12.009 24.9484 11.3855 24.1766 11.3855C23.4047 11.3855 22.7778 12.009 22.7778 12.7768C22.7778 13.5446 23.4047 14.1681 24.1766 14.1681Z" fill="white"/>
</svg>
