<svg width="37" height="36" viewBox="0 0 37 36" fill="none" xmlns="http://www.w3.org/2000/svg">
<path d="M18.5462 0H18.4642C8.54867 0 0.510498 7.99551 0.510498 17.8585V17.94C0.510498 27.803 8.54867 35.7985 18.4642 35.7985H18.5462C28.4617 35.7985 36.4999 27.803 36.4999 17.94V17.8585C36.4999 7.99551 28.4617 0 18.5462 0Z" fill="#383D38"/>
<path d="M9.09316 11.8984C8.61907 11.4607 8.3833 10.9189 8.3833 10.2742C8.3833 9.62958 8.62033 9.06394 9.09316 8.62497C9.56726 8.18726 10.1775 7.96777 10.9252 7.96777C11.6729 7.96777 12.2593 8.18726 12.7321 8.62497C13.2062 9.06268 13.4419 9.61328 13.4419 10.2742C13.4419 10.9352 13.2049 11.4607 12.7321 11.8984C12.258 12.3361 11.6565 12.5556 10.9252 12.5556C10.1939 12.5556 9.56726 12.3361 9.09316 11.8984ZM13.0435 14.4093V27.8292H8.78047V14.4093H13.0435Z" fill="#FEFFFC"/>
<path d="M27.2347 15.735C28.164 16.7384 28.628 18.1155 28.628 19.8688V27.5922H24.5793V20.4132C24.5793 19.529 24.3486 18.8417 23.8883 18.3525C23.4281 17.8634 22.8078 17.6176 22.0311 17.6176C21.2544 17.6176 20.634 17.8621 20.1737 18.3525C19.7135 18.8417 19.4828 19.529 19.4828 20.4132V27.5922H15.4102V14.3717H19.4828V16.1251C19.8951 15.5406 20.4512 15.0791 21.1497 14.7392C21.8482 14.3993 22.6338 14.23 23.5075 14.23C25.0635 14.23 26.3067 14.7317 27.2347 15.7338V15.735Z" fill="#FEFFFC"/>
</svg>
