<svg width="37" height="37" viewBox="0 0 37 37" fill="none" xmlns="http://www.w3.org/2000/svg">
<path d="M18.5357 0.798584H18.4537C8.53814 0.798584 0.5 8.7941 0.5 18.6571V18.7386C0.5 28.6016 8.53814 36.5971 18.4537 36.5971H18.5357C28.4512 36.5971 36.4894 28.6016 36.4894 18.7386V18.6571C36.4894 8.7941 28.4512 0.798584 18.5357 0.798584Z" fill="#383D38"/>
<path d="M7.31625 18.0877C7.36668 18.0626 7.41714 18.0388 7.46632 18.0162C8.3212 17.6224 9.18742 17.2536 10.0524 16.8849C10.099 16.8849 10.1772 16.831 10.2213 16.8134C10.2882 16.7846 10.355 16.757 10.4218 16.7281C10.5504 16.6729 10.679 16.619 10.8064 16.5638C11.0636 16.4547 11.3196 16.3456 11.5768 16.2365L13.1163 15.5805C14.1427 15.1441 15.1703 14.7064 16.1967 14.2699C17.223 13.8334 18.2506 13.3957 19.277 12.9593C20.3034 12.5228 21.331 12.0851 22.3573 11.6486C23.3837 11.2122 24.4113 10.7745 25.4377 10.338C25.6659 10.2402 25.913 10.0947 26.1577 10.052C26.3632 10.0157 26.5636 9.94544 26.7704 9.90656C27.1626 9.83256 27.595 9.80246 27.9708 9.96425C28.1007 10.0207 28.2204 10.0997 28.3201 10.1988C28.7967 10.6679 28.7298 11.4379 28.629 12.0976C27.9267 16.6955 27.2243 21.2947 26.5208 25.8925C26.4249 26.5234 26.2938 27.2157 25.7932 27.6145C25.3696 27.9519 24.7669 27.9895 24.2436 27.8466C23.7203 27.7023 23.2589 27.4001 22.8062 27.1028C20.9288 25.8662 19.0501 24.6295 17.1726 23.3929C16.7262 23.0994 16.2295 22.7157 16.2345 22.1826C16.237 21.8615 16.4299 21.5756 16.6266 21.321C18.2582 19.2039 20.6123 17.749 22.3636 15.7298C22.6108 15.4451 22.805 14.9309 22.4658 14.7666C22.264 14.6687 22.032 14.8017 21.8479 14.9284C19.533 16.5275 17.2193 18.1278 14.9043 19.7269C14.149 20.2486 13.3572 20.7854 12.4468 20.9134C11.6323 21.0288 10.8127 20.803 10.0247 20.5722C9.36395 20.3791 8.70449 20.1809 8.04757 19.9765C7.6983 19.8686 7.33769 19.752 7.06786 19.5074C6.79803 19.2629 6.64296 18.8515 6.80562 18.5254C6.90775 18.3209 7.10571 18.1918 7.31376 18.0864L7.31625 18.0877Z" fill="#FEFFFC"/>
</svg>
