<svg width="37" height="37" viewBox="0 0 37 37" fill="none" xmlns="http://www.w3.org/2000/svg">
<path d="M18.5357 0.596924H18.4537C8.53816 0.596924 0.5 8.59244 0.5 18.4554V18.5369C0.5 28.3999 8.53816 36.3954 18.4537 36.3954H18.5357C28.4512 36.3954 36.4894 28.3999 36.4894 18.5369V18.4554C36.4894 8.59244 28.4512 0.596924 18.5357 0.596924Z" fill="#383D38"/>
<path d="M27.1942 13.5477V16.9278C26.6004 16.8701 25.8287 16.7359 24.9751 16.4248C23.8604 16.0185 23.0308 15.4629 22.4873 15.0327V21.8643L22.4735 21.8429C22.4823 21.9784 22.4873 22.1164 22.4873 22.2556C22.4873 25.6482 19.7121 28.4099 16.3002 28.4099C12.8882 28.4099 10.113 25.6482 10.113 22.2556C10.113 18.863 12.8882 16.1 16.3002 16.1C16.6343 16.1 16.9622 16.1263 17.2824 16.1777V19.5089C16.9748 19.3998 16.6444 19.3408 16.3002 19.3408C14.685 19.3408 13.3699 20.6477 13.3699 22.2556C13.3699 23.8635 14.685 25.1703 16.3002 25.1703C17.9154 25.1703 19.2305 23.8622 19.2305 22.2556C19.2305 22.1954 19.2292 22.1352 19.2254 22.075V8.79932H22.621C22.6336 9.08527 22.645 9.37374 22.6576 9.6597C22.6803 10.2228 22.882 10.7634 23.2338 11.2061C23.6461 11.7266 24.2551 12.3311 25.11 12.814C25.9106 13.2643 26.6621 13.4587 27.1942 13.5502V13.5477Z" fill="white"/>
</svg>
