<svg width="37" height="37" viewBox="0 0 37 37" fill="none" xmlns="http://www.w3.org/2000/svg">
<path d="M18.5462 0.798584H18.4642C8.54865 0.798584 0.510498 8.7941 0.510498 18.6571V18.7386C0.510498 28.6016 8.54865 36.5971 18.4642 36.5971H18.5462C28.4617 36.5971 36.4999 28.6016 36.4999 18.7386V18.6571C36.4999 8.7941 28.4617 0.798584 18.5462 0.798584Z" fill="#383D38"/>
<path d="M22.0123 23.9337C17.4063 23.9337 13.659 20.205 13.6577 15.6234C13.659 14.462 14.6097 13.5176 15.7747 13.5176C15.8945 13.5176 16.013 13.5276 16.1265 13.5477C16.3762 13.5891 16.6132 13.6731 16.8314 13.7998C16.8629 13.8186 16.8843 13.8487 16.8894 13.8838L17.3761 16.9353C17.3824 16.9704 17.371 17.0068 17.3471 17.0331C17.0785 17.3291 16.7355 17.5423 16.3535 17.6489L16.1694 17.7003L16.2387 17.8772C16.8667 19.4675 18.1452 20.738 19.7453 21.3651L19.9231 21.4353L19.9747 21.2522C20.0819 20.8722 20.2963 20.531 20.5938 20.2639C20.6153 20.2438 20.6443 20.2338 20.6733 20.2338C20.6796 20.2338 20.6859 20.2338 20.6935 20.235L23.7612 20.7192C23.7977 20.7254 23.828 20.7455 23.8469 20.7769C23.973 20.9938 24.0575 21.2309 24.1004 21.4792C24.1205 21.5896 24.1294 21.7062 24.1294 21.8279C24.1294 22.988 23.1799 23.9324 22.0123 23.9337Z" fill="#FDFDFD"/>
<path d="M30.1803 17.6925C29.9319 14.9007 28.6458 12.3108 26.559 10.4006C24.4596 8.4792 21.7361 7.42065 18.8878 7.42065C12.6363 7.42065 7.54991 12.4801 7.54991 18.6984C7.54991 20.7854 8.12865 22.8184 9.22435 24.5893L6.78076 29.9698L14.6046 29.1408C15.965 29.6952 17.405 29.9761 18.8865 29.9761C19.2761 29.9761 19.6758 29.956 20.0768 29.9146C20.4298 29.877 20.7867 29.8218 21.1372 29.7516C26.3724 28.6993 30.1941 24.0776 30.2244 18.7586V18.6984C30.2244 18.3597 30.2092 18.0211 30.179 17.6938L30.1803 17.6925ZM14.9059 26.7791L10.5773 27.2382L11.8697 24.3899L11.6112 24.045C11.5923 24.0199 11.5734 23.9948 11.552 23.966C10.4298 22.4246 9.83714 20.6035 9.83714 18.6996C9.83714 13.7355 13.8972 9.69702 18.8878 9.69702C23.5631 9.69702 27.5261 13.3254 27.9081 17.9571C27.9283 18.2055 27.9397 18.4551 27.9397 18.7009C27.9397 18.7711 27.9384 18.8401 27.9371 18.9141C27.8413 23.0667 24.9249 26.5935 20.8447 27.4915C20.5332 27.5605 20.2142 27.6132 19.8965 27.6471C19.5661 27.6847 19.2269 27.7035 18.8903 27.7035C17.6912 27.7035 16.5261 27.4727 15.4254 27.0162C15.3031 26.9673 15.1833 26.9146 15.0711 26.8607L14.9072 26.7817L14.9059 26.7791Z" fill="#FDFDFD"/>
</svg>
