<svg width="37" height="36" viewBox="0 0 37 36" fill="none" xmlns="http://www.w3.org/2000/svg">
<path d="M36.4881 17.8999C36.4881 26.9401 29.7512 34.4139 20.9994 35.6267C20.1811 35.7395 19.3439 35.7985 18.4941 35.7985C17.5131 35.7985 16.5498 35.7207 15.6117 35.5702C7.04398 34.1981 0.5 26.8084 0.5 17.8999C0.5 8.0143 8.55704 0 18.4953 0C28.4336 0 36.4907 8.0143 36.4907 17.8999H36.4881Z" fill="#383D38"/>
<path d="M7.79804 7.89526L16.0972 18.9322L7.74634 27.9059H9.62632L16.9382 20.0497L22.8454 27.9059H29.2419L20.4762 16.2482L28.2496 7.89526H26.3696L19.6365 15.1307L14.1958 7.89526H7.79929H7.79804ZM10.5619 9.27237H13.4998L26.4755 26.5288H23.5376L10.5619 9.27237Z" fill="white"/>
</svg>
