<svg width="37" height="37" viewBox="0 0 37 37" fill="none" xmlns="http://www.w3.org/2000/svg">
<path d="M36.4948 18.4962C36.4948 8.61069 28.4383 0.596924 18.5001 0.596924C8.56188 0.596924 0.505371 8.61069 0.505371 18.4962C0.505371 28.3816 8.56188 36.3954 18.5001 36.3954C28.4383 36.3954 36.4948 28.3816 36.4948 18.4962Z" fill="#383D38"/>
<path d="M29.831 14.787C29.6894 13.4274 29.3846 11.9243 28.2631 11.1344C27.3944 10.5219 26.2525 10.4993 25.1866 10.5005C22.9333 10.5005 20.6788 10.5043 18.4255 10.5056C16.2582 10.5081 14.0908 10.5093 11.9235 10.5119C11.0182 10.5119 10.1381 10.4427 9.29723 10.8326C8.57522 11.1671 8.01 11.8036 7.66986 12.5117C7.19821 13.4965 7.09958 14.6122 7.04268 15.7014C6.93773 17.6849 6.94911 19.6734 7.07429 21.6556C7.1666 23.1021 7.40052 24.7007 8.52464 25.6226C9.52104 26.4389 10.9271 26.4792 12.2194 26.4804C16.3214 26.4842 20.4246 26.488 24.5278 26.4905C25.0538 26.4917 25.6026 26.4817 26.1387 26.4238C27.1933 26.3106 28.1986 26.01 28.8763 25.2327C29.5604 24.4491 29.7362 23.3587 29.8399 22.326C30.0927 19.8206 30.0902 17.2912 29.831 14.787ZM16.0533 22.0078V14.9832L22.1683 18.4949L16.0533 22.0078Z" fill="white"/>
</svg>
