<svg width="27" height="20" viewBox="0 0 27 20" fill="none" xmlns="http://www.w3.org/2000/svg">
<path d="M22.5066 1.68096C20.8498 0.92468 19.0745 0.367817 17.2172 0.0492512C17.1832 0.0429802 17.1491 0.0580315 17.1327 0.0893863C16.9045 0.493237 16.6511 1.02125 16.4746 1.43514C14.4773 1.13789 12.4902 1.13789 10.5333 1.43514C10.3555 1.01122 10.0932 0.493237 9.86376 0.0893863C9.8461 0.0592857 9.81207 0.0442344 9.77929 0.0492512C7.92327 0.367817 6.14669 0.92468 4.48989 1.68096C4.47602 1.68723 4.4634 1.69726 4.45458 1.71106C1.0855 6.7178 0.162505 11.6016 0.615162 16.4253C0.617684 16.4491 0.630295 16.4717 0.649208 16.4855C2.87215 18.1097 5.02576 19.0955 7.139 19.7489C7.17305 19.7589 7.20835 19.7464 7.22978 19.7188C7.72909 19.0403 8.17545 18.3241 8.5575 17.5704C8.58019 17.5265 8.55748 17.4738 8.51209 17.4562C7.80474 17.1891 7.13268 16.8642 6.48458 16.4955C6.43289 16.4654 6.42912 16.3927 6.47578 16.3575C6.61195 16.256 6.74812 16.1506 6.87799 16.044C6.90195 16.0239 6.93472 16.0202 6.96246 16.0327C11.2154 17.9642 15.8202 17.9642 20.0227 16.0327C20.0504 16.0189 20.0832 16.0239 20.1072 16.0427C20.237 16.1494 20.3732 16.256 20.5107 16.3575C20.5573 16.3927 20.5548 16.4654 20.5031 16.4955C19.8563 16.8718 19.183 17.1903 18.4743 17.4562C18.4277 17.4738 18.4075 17.5265 18.4302 17.5716C18.8211 18.3229 19.2662 19.039 19.7566 19.7188C19.7768 19.7476 19.8134 19.7602 19.8474 19.7501C21.9708 19.0967 24.1243 18.1109 26.3473 16.4867C26.3662 16.4729 26.3788 16.4504 26.3813 16.4278C26.9235 10.8516 25.4735 6.00793 22.5394 1.71357C22.5319 1.69977 22.5205 1.68849 22.5054 1.68222L22.5066 1.68096ZM9.19043 13.488C7.90938 13.488 6.8553 12.319 6.8553 10.883C6.8553 9.44693 7.89046 8.27802 9.19043 8.27802C10.4904 8.27802 11.547 9.45822 11.5256 10.883C11.5256 12.319 10.4904 13.488 9.19043 13.488ZM17.8262 13.488C16.5452 13.488 15.4911 12.319 15.4911 10.883C15.4911 9.44693 16.5263 8.27802 17.8262 8.27802C19.1262 8.27802 20.1828 9.45822 20.1614 10.883C20.1614 12.319 19.1375 13.488 17.8262 13.488Z" fill="white"/>
</svg>
