<svg width="23" height="23" viewBox="0 0 23 23" fill="none" xmlns="http://www.w3.org/2000/svg">
<path d="M17.0739 0.879883H5.93781C2.86125 0.879883 0.358398 3.36946 0.358398 6.4297V16.5636C0.358398 19.6238 2.86125 22.1134 5.93781 22.1134H17.0739C20.1505 22.1134 22.6533 19.6238 22.6533 16.5636V6.4297C22.6533 3.36946 20.1505 0.879883 17.0739 0.879883ZM2.32664 6.4297C2.32664 4.44932 3.94687 2.83768 5.93781 2.83768H17.0739C19.0649 2.83768 20.6851 4.44932 20.6851 6.4297V16.5636C20.6851 18.544 19.0649 20.1556 17.0739 20.1556H5.93781C3.94687 20.1556 2.32664 18.544 2.32664 16.5636V6.4297Z" fill="white"/>
<path d="M11.5057 16.6575C14.3667 16.6575 16.6955 14.3423 16.6955 11.4953C16.6955 8.64825 14.3679 6.33301 11.5057 6.33301C8.64351 6.33301 6.31592 8.64825 6.31592 11.4953C6.31592 14.3423 8.64351 16.6575 11.5057 16.6575ZM11.5057 8.29206C13.2823 8.29206 14.7273 9.72937 14.7273 11.4965C14.7273 13.2637 13.2823 14.701 11.5057 14.701C9.72913 14.701 8.28416 13.2637 8.28416 11.4965C8.28416 9.72937 9.72913 8.29206 11.5057 8.29206Z" fill="white"/>
<path d="M17.1766 7.16837C17.9472 7.16837 18.5753 6.54485 18.5753 5.77706C18.5753 5.00926 17.9484 4.38574 17.1766 4.38574C16.4047 4.38574 15.7778 5.00926 15.7778 5.77706C15.7778 6.54485 16.4047 7.16837 17.1766 7.16837Z" fill="white"/>
</svg>
