<svg width="21" height="21" viewBox="0 0 21 21" fill="none" xmlns="http://www.w3.org/2000/svg">
<path d="M1.09365 4.89842C0.619559 4.4607 0.383789 3.9189 0.383789 3.27424C0.383789 2.62958 0.62082 2.06394 1.09365 1.62497C1.56774 1.18726 2.17801 0.967773 2.92572 0.967773C3.67342 0.967773 4.25974 1.18726 4.73257 1.62497C5.20667 2.06268 5.44244 2.61328 5.44244 3.27424C5.44244 3.9352 5.20541 4.4607 4.73257 4.89842C4.25848 5.33613 3.65703 5.55561 2.92572 5.55561C2.19441 5.55561 1.56774 5.33613 1.09365 4.89842ZM5.04401 7.40932V20.8292H0.780955V7.40932H5.04401Z" fill="#FEFFFC"/>
<path d="M19.2352 8.7355C20.1645 9.73886 20.6285 11.116 20.6285 12.8693V20.5927H16.5798V13.4137C16.5798 12.5294 16.349 11.8421 15.8888 11.353C15.4286 10.8639 14.8082 10.618 14.0315 10.618C13.2548 10.618 12.6345 10.8626 12.1742 11.353C11.714 11.8421 11.4833 12.5294 11.4833 13.4137V20.5927H7.41064V7.37219H11.4833V9.12555C11.8956 8.5411 12.4517 8.07957 13.1502 7.73968C13.8487 7.39979 14.6342 7.23047 15.508 7.23047C17.064 7.23047 18.3072 7.73215 19.2352 8.73425V8.7355Z" fill="#FEFFFC"/>
</svg>
