<svg width="23" height="19" viewBox="0 0 23 19" fill="none" xmlns="http://www.w3.org/2000/svg">
<path d="M1.31625 9.08767C1.36668 9.06259 1.41714 9.03875 1.46632 9.01618C2.3212 8.62236 3.18742 8.25363 4.05239 7.8849C4.09904 7.8849 4.1772 7.83097 4.22133 7.81341C4.28816 7.78456 4.35499 7.75697 4.42182 7.72813C4.55043 7.67294 4.67905 7.61901 4.8064 7.56383C5.06362 7.45471 5.31956 7.34559 5.57678 7.23648L7.11631 6.58053C8.14267 6.14408 9.17032 5.70636 10.1967 5.2699C11.223 4.83344 12.2506 4.39573 13.277 3.95927C14.3034 3.52281 15.331 3.0851 16.3573 2.64864C17.3837 2.21218 18.4113 1.77446 19.4377 1.338C19.6659 1.24018 19.913 1.09469 20.1577 1.05204C20.3632 1.01567 20.5636 0.945439 20.7704 0.906559C21.1626 0.832562 21.595 0.802464 21.9708 0.964255C22.1007 1.02069 22.2204 1.09971 22.3201 1.19879C22.7967 1.66786 22.7298 2.43793 22.629 3.09763C21.9267 7.69551 21.2243 12.2947 20.5208 16.8925C20.4249 17.5234 20.2938 18.2157 19.7932 18.6145C19.3696 18.9519 18.7669 18.9895 18.2436 18.8466C17.7203 18.7023 17.2589 18.4001 16.8062 18.1028C14.9288 16.8662 13.0501 15.6295 11.1726 14.3929C10.7262 14.0994 10.2295 13.7157 10.2345 13.1826C10.237 12.8615 10.4299 12.5756 10.6266 12.321C12.2582 10.2039 14.6123 8.74904 16.3636 6.72978C16.6108 6.44508 16.805 5.93086 16.4658 5.76656C16.264 5.66874 16.032 5.80168 15.8479 5.92835C13.533 7.52745 11.2193 9.1278 8.90427 10.7269C8.149 11.2486 7.35717 11.7854 6.44681 11.9134C5.63228 12.0288 4.81271 11.803 4.02466 11.5722C3.36395 11.3791 2.70449 11.1809 2.04757 10.9765C1.6983 10.8686 1.33769 10.752 1.06786 10.5074C0.798029 10.2629 0.642962 9.85147 0.805616 9.52538C0.907747 9.32095 1.10571 9.19177 1.31376 9.08641L1.31625 9.08767Z" fill="#FEFFFC"/>
</svg>
