<svg width="18" height="21" viewBox="0 0 18 21" fill="none" xmlns="http://www.w3.org/2000/svg">
<path d="M17.194 5.54722V8.92726C16.6001 8.86957 15.8284 8.73538 14.9748 8.42434C13.8602 8.01798 13.0305 7.46237 12.4871 7.03218V13.8638L12.4732 13.8425C12.4821 13.9779 12.4871 14.1159 12.4871 14.2551C12.4871 17.6477 9.7119 20.4094 6.29995 20.4094C2.888 20.4094 0.112793 17.6477 0.112793 14.2551C0.112793 10.8625 2.888 8.0995 6.29995 8.0995C6.63408 8.0995 6.96192 8.12584 7.28218 8.17726V11.5084C6.97453 11.3993 6.64417 11.3403 6.29995 11.3403C4.68476 11.3403 3.36966 12.6472 3.36966 14.2551C3.36966 15.863 4.68476 17.1698 6.29995 17.1698C7.91514 17.1698 9.23024 15.8617 9.23024 14.2551C9.23024 14.1949 9.22898 14.1347 9.2252 14.0745V0.798828H12.6208C12.6334 1.08478 12.6447 1.37326 12.6573 1.65921C12.68 2.22234 12.8818 2.7629 13.2335 3.20563C13.6459 3.72612 14.2549 4.33064 15.1097 4.81351C15.9104 5.26376 16.6619 5.45816 17.194 5.54972V5.54722Z" fill="white"/>
</svg>
