<svg width="32" height="33" viewBox="0 0 32 33" fill="none" xmlns="http://www.w3.org/2000/svg">
<g opacity="0.33" clip-path="url(#clip0_7_517)">
<path d="M4.08824 30.1999C5.79383 30.1999 7.17648 28.8173 7.17648 27.1117C7.17648 25.4061 5.79383 24.0234 4.08824 24.0234C2.38265 24.0234 1 25.4061 1 27.1117C1 28.8173 2.38265 30.1999 4.08824 30.1999Z" stroke="white" stroke-width="1.5"/>
<path d="M27.9115 30.1999C29.6171 30.1999 30.9997 28.8173 30.9997 27.1117C30.9997 25.4061 29.6171 24.0234 27.9115 24.0234C26.2059 24.0234 24.8232 25.4061 24.8232 27.1117C24.8232 28.8173 26.2059 30.1999 27.9115 30.1999Z" stroke="white" stroke-width="1.5"/>
<path d="M16.0003 8.13742C17.7059 8.13742 19.0886 6.75477 19.0886 5.04918C19.0886 3.34359 17.7059 1.96094 16.0003 1.96094C14.2948 1.96094 12.9121 3.34359 12.9121 5.04918C12.9121 6.75477 14.2948 8.13742 16.0003 8.13742Z" stroke="white" stroke-width="1.5"/>
<path d="M14.0242 8.57422L5.62305 23.5762" stroke="white" stroke-width="1.5"/>
<path d="M17.9756 8.57422L26.3767 23.5762" stroke="white" stroke-width="1.5"/>
<path d="M8.05859 27.1055H23.9409" stroke="white" stroke-width="1.5"/>
</g>
<defs>
<clipPath id="clip0_7_517">
<rect width="32" height="32" fill="white" transform="translate(0 0.078125)"/>
</clipPath>
</defs>
</svg>
