<svg width="25" height="23" viewBox="0 0 25 23" fill="none" xmlns="http://www.w3.org/2000/svg">
<path d="M16.0128 16.9337C11.4068 16.9337 7.65946 13.205 7.6582 8.62338C7.65946 7.46199 8.61018 6.51758 9.77523 6.51758C9.89502 6.51758 10.0135 6.52761 10.127 6.54768C10.3767 6.58907 10.6137 6.6731 10.8319 6.79977C10.8634 6.81858 10.8848 6.84869 10.8898 6.88381L11.3765 9.93526C11.3829 9.97038 11.3715 10.0068 11.3475 10.0331C11.079 10.3291 10.736 10.5423 10.354 10.6489L10.1699 10.7003L10.2392 10.8772C10.8671 12.4675 12.1457 13.738 13.7458 14.3651L13.9235 14.4353L13.9752 14.2522C14.0824 13.8722 14.2968 13.531 14.5943 13.2639C14.6158 13.2438 14.6448 13.2338 14.6738 13.2338C14.6801 13.2338 14.6864 13.2338 14.6939 13.235L17.7617 13.7192C17.7982 13.7254 17.8285 13.7455 17.8474 13.7769C17.9735 13.9938 18.058 14.2309 18.1009 14.4792C18.121 14.5896 18.1298 14.7062 18.1298 14.8279C18.1298 15.988 17.1804 16.9324 16.0128 16.9337Z" fill="#FDFDFD"/>
<path d="M24.1807 10.6928C23.9323 7.90092 22.6462 5.31101 20.5595 3.40087C18.4601 1.47944 15.7366 0.420898 12.8883 0.420898C6.6368 0.420898 1.5504 5.48032 1.5504 11.6986C1.5504 13.7856 2.12914 15.8187 3.22484 17.5896L0.78125 22.9701L8.60504 22.141C9.96553 22.6954 11.4055 22.9763 12.887 22.9763C13.2766 22.9763 13.6763 22.9563 14.0773 22.9149C14.4303 22.8773 14.7872 22.8221 15.1377 22.7518C20.3729 21.6996 24.1946 17.0779 24.2249 11.7588V11.6986C24.2249 11.36 24.2097 11.0213 24.1795 10.694L24.1807 10.6928ZM8.90639 19.7794L4.57778 20.2384L5.87019 17.3902L5.6117 17.0452C5.59279 17.0202 5.57388 16.9951 5.55244 16.9662C4.43026 15.4248 3.83763 13.6037 3.83763 11.6999C3.83763 6.73577 7.89768 2.69727 12.8883 2.69727C17.5636 2.69727 21.5266 6.32565 21.9086 10.9574C21.9288 11.2057 21.9401 11.4553 21.9401 11.7011C21.9401 11.7714 21.9389 11.8403 21.9376 11.9143C21.8418 16.067 18.9254 19.5938 14.8452 20.4918C14.5337 20.5608 14.2147 20.6134 13.897 20.6473C13.5666 20.6849 13.2274 20.7037 12.8908 20.7037C11.6917 20.7037 10.5266 20.473 9.42588 20.0164C9.30357 19.9675 9.18378 19.9148 9.07156 19.8609L8.90765 19.7819L8.90639 19.7794Z" fill="#FDFDFD"/>
</svg>
