<svg width="25" height="17" viewBox="0 0 25 17" fill="none" xmlns="http://www.w3.org/2000/svg">
<path d="M23.8312 4.7865C23.6896 3.42686 23.3849 1.92384 22.2633 1.13396C21.3946 0.521429 20.2528 0.498785 19.1868 0.500042C16.9335 0.500042 14.679 0.503821 12.4257 0.505078C10.2584 0.507594 8.09109 0.50885 5.92379 0.511366C5.01842 0.511366 4.13835 0.442187 3.29747 0.832094C2.57546 1.16666 2.01024 1.80309 1.6701 2.51121C1.19845 3.49604 1.09983 4.61168 1.04293 5.7009C0.937976 7.6844 0.949356 9.67292 1.07454 11.6552C1.16684 13.1016 1.40077 14.7002 2.52488 15.6221C3.52129 16.4384 4.92738 16.4787 6.21967 16.4799C10.3216 16.4837 14.4248 16.4875 18.528 16.49C19.0541 16.4913 19.6028 16.4812 20.139 16.4233C21.1936 16.3101 22.1988 16.0095 22.8766 15.2322C23.5606 14.4486 23.7364 13.3582 23.8401 12.3255C24.093 9.82008 24.0905 7.29071 23.8312 4.7865ZM10.0536 12.0073V4.98272L16.1686 8.49439L10.0536 12.0073Z" fill="white"/>
</svg>
