<svg width="20" height="20" viewBox="0 0 20 20" fill="none" xmlns="http://www.w3.org/2000/svg">
<path fill-rule="evenodd" clip-rule="evenodd" d="M15.1338 0.533074C16.1859 0.4298 17.1928 0.899305 18.1466 1.85318C19.1005 2.80705 19.57 3.8139 19.4667 4.86601C19.3683 5.86894 18.767 6.67534 18.1466 7.29567L17.2439 8.19845C17.2203 8.22484 17.1953 8.24979 17.1691 8.2732L11.58 13.8623L11.569 13.8731C11.3521 14.083 11.078 14.2586 10.8224 14.3871C10.569 14.5145 10.2585 14.6334 9.94964 14.6775L7.4413 15.0358L7.43653 15.0365L7.43653 15.0365C6.73601 15.1329 6.04223 14.9432 5.5482 14.4512C5.05288 13.9579 4.86115 13.2628 4.9642 12.557L4.96449 12.5549L5.32188 10.0532L5.32213 10.0514C5.36593 9.73954 5.48406 9.42713 5.61274 9.17112C5.74179 8.91436 5.92037 8.63695 6.13747 8.41984L12.7041 1.85318C13.3245 1.23285 14.1309 0.631521 15.1338 0.533074ZM16.2916 6.49907L16.8208 5.96984C17.3338 5.45684 17.5658 5.03824 17.6007 4.68284C17.6308 4.37661 17.5336 3.8918 16.8208 3.179C16.108 2.46621 15.6232 2.36905 15.317 2.39911C14.9616 2.43399 14.543 2.666 14.03 3.179L13.5006 3.7084C14.0072 4.977 15.0155 5.98652 16.2916 6.49907ZM12.0925 5.11651C12.7296 6.2975 13.7009 7.26777 14.884 7.90662L10.2614 12.5293C10.2178 12.5701 10.1187 12.6423 9.98041 12.7118C9.83596 12.7844 9.72564 12.8155 9.68447 12.8213L7.18091 13.179L7.17896 13.1793C6.97259 13.2072 6.89182 13.1431 6.87133 13.1227C6.85253 13.1039 6.79 13.029 6.81961 12.8272L6.82013 12.8237L7.17846 10.3153L7.17889 10.3123C7.18529 10.2665 7.21695 10.1546 7.28803 10.0131C7.35898 9.87199 7.43041 9.77856 7.4633 9.74567L12.0925 5.11651ZM2.35922 2.35734C3.55856 1.158 5.3255 0.728583 7.5013 0.728583H9.16797C9.68574 0.728583 10.1055 1.14832 10.1055 1.66608C10.1055 2.18385 9.68574 2.60358 9.16797 2.60358H7.5013C5.51043 2.60358 4.36071 3.0075 3.68505 3.68316C3.00938 4.35883 2.60547 5.50855 2.60547 7.49942V12.4994C2.60547 14.4903 3.00938 15.64 3.68505 16.3157C4.36071 16.9913 5.51043 17.3952 7.5013 17.3952H12.5013C14.4922 17.3952 15.6419 16.9913 16.3176 16.3157C16.9932 15.64 17.3971 14.4903 17.3971 12.4994V10.8327C17.3971 10.315 17.8169 9.89525 18.3346 9.89525C18.8524 9.89525 19.2721 10.315 19.2721 10.8327V12.4994C19.2721 14.6752 18.8427 16.4422 17.6434 17.6415C16.444 18.8408 14.6771 19.2702 12.5013 19.2702H7.5013C5.3255 19.2702 3.55856 18.8408 2.35922 17.6415C1.15989 16.4422 0.730469 14.6752 0.730469 12.4994V7.49942C0.730469 5.32362 1.15989 3.55667 2.35922 2.35734Z" fill="black" fill-opacity="0.54"/>
</svg>
