<svg width="31" height="30" viewBox="0 0 31 30" fill="none" xmlns="http://www.w3.org/2000/svg">
<path d="M15.485 0C7.205 0 0.5 6.72 0.5 15C0.5 23.28 7.205 30 15.485 30C23.78 30 30.5 23.28 30.5 15C30.5 6.72 23.78 0 15.485 0ZM10.25 9C11.495 9 12.5 10.005 12.5 11.25C12.5 12.495 11.495 13.5 10.25 13.5C9.005 13.5 8 12.495 8 11.25C8 10.005 9.005 9 10.25 9ZM22.565 19.08C21.2 22.005 18.56 24 15.5 24C12.44 24 9.8 22.005 8.435 19.08C8.195 18.585 8.555 18 9.11 18H21.89C22.445 18 22.805 18.585 22.565 19.08ZM20.75 13.5C19.505 13.5 18.5 12.495 18.5 11.25C18.5 10.005 19.505 9 20.75 9C21.995 9 23 10.005 23 11.25C23 12.495 21.995 13.5 20.75 13.5Z" fill="#323232"/>
</svg>
