<svg width="72" height="73" viewBox="0 0 72 73" fill="none" xmlns="http://www.w3.org/2000/svg">
<rect y="0.5" width="72" height="72" rx="12" fill="white"/>
<path d="M8.15146 58.5V43.9545H10.7225V49.3949H10.829C10.9616 49.1297 11.1486 48.848 11.3901 48.5497C11.6316 48.2467 11.9583 47.9886 12.3702 47.7756C12.7821 47.5578 13.3077 47.4489 13.9469 47.4489C14.7897 47.4489 15.5497 47.6643 16.2267 48.0952C16.9086 48.5213 17.4483 49.1534 17.8461 49.9915C18.2485 50.8248 18.4498 51.8475 18.4498 53.0597C18.4498 54.2576 18.2533 55.2756 17.8603 56.1136C17.4673 56.9517 16.9322 57.5909 16.2551 58.0312C15.5781 58.4716 14.811 58.6918 13.954 58.6918C13.329 58.6918 12.8105 58.5876 12.3986 58.3793C11.9867 58.1709 11.6552 57.92 11.4043 57.6264C11.1581 57.3281 10.9663 57.0464 10.829 56.7812H10.6799V58.5H8.15146ZM10.6728 53.0455C10.6728 53.7509 10.7722 54.3688 10.9711 54.8991C11.1747 55.4295 11.4659 55.8437 11.8446 56.142C12.2282 56.4356 12.6922 56.5824 13.2367 56.5824C13.8049 56.5824 14.2807 56.4309 14.6642 56.1278C15.0478 55.8201 15.3366 55.401 15.5307 54.8707C15.7296 54.3357 15.829 53.7273 15.829 53.0455C15.829 52.3684 15.7319 51.767 15.5378 51.2415C15.3437 50.7159 15.0549 50.304 14.6713 50.0057C14.2878 49.7074 13.8096 49.5582 13.2367 49.5582C12.6874 49.5582 12.2211 49.7027 11.8375 49.9915C11.454 50.2803 11.1628 50.6851 10.964 51.206C10.7698 51.7268 10.6728 52.34 10.6728 53.0455ZM26.0829 47.5909V49.5795H19.8116V47.5909H26.0829ZM21.3599 44.9773H23.9309V55.2188C23.9309 55.5644 23.983 55.8295 24.0872 56.0142C24.1961 56.1941 24.3381 56.3172 24.5133 56.3835C24.6885 56.4498 24.8826 56.483 25.0957 56.483C25.2567 56.483 25.4035 56.4711 25.536 56.4474C25.6734 56.4238 25.7775 56.4025 25.8485 56.3835L26.2818 58.3935C26.1445 58.4408 25.948 58.4929 25.6923 58.5497C25.4413 58.6065 25.1336 58.6397 24.769 58.6491C24.1251 58.6681 23.545 58.571 23.0289 58.358C22.5128 58.1402 22.1033 57.804 21.8002 57.3494C21.502 56.8949 21.3552 56.3267 21.3599 55.6449V44.9773ZM32.8745 58.7131C31.7855 58.7131 30.8503 58.474 30.0691 57.9957C29.2926 57.5175 28.6936 56.857 28.2722 56.0142C27.8555 55.1667 27.6472 54.1913 27.6472 53.0881C27.6472 51.9801 27.8603 51.0024 28.2864 50.1548C28.7125 49.3026 29.3139 48.6397 30.0904 48.1662C30.8716 47.688 31.7949 47.4489 32.8603 47.4489C33.7457 47.4489 34.5293 47.6122 35.2111 47.9389C35.8977 48.2609 36.4445 48.7178 36.8517 49.3097C37.2589 49.8968 37.4909 50.5833 37.5478 51.3693H35.0904C34.9909 50.8437 34.7542 50.4058 34.3801 50.0554C34.0108 49.7003 33.516 49.5227 32.8958 49.5227C32.3702 49.5227 31.9086 49.6648 31.5108 49.9489C31.1131 50.2282 30.803 50.6307 30.5804 51.1562C30.3626 51.6818 30.2537 52.3116 30.2537 53.0455C30.2537 53.7888 30.3626 54.428 30.5804 54.9631C30.7982 55.4934 31.1036 55.9029 31.4966 56.1918C31.8944 56.4759 32.3607 56.6179 32.8958 56.6179C33.2746 56.6179 33.6131 56.5469 33.9114 56.4048C34.2144 56.258 34.4677 56.0473 34.6713 55.7727C34.8749 55.4981 35.0146 55.1643 35.0904 54.7713H37.5478C37.4862 55.5431 37.2589 56.2273 36.8659 56.8239C36.473 57.4157 35.9379 57.8797 35.2608 58.2159C34.5837 58.5473 33.7883 58.7131 32.8745 58.7131ZM41.2427 58.6562C40.8118 58.6562 40.4425 58.5047 40.1348 58.2017C39.827 57.8987 39.6755 57.5294 39.6802 57.0938C39.6755 56.6676 39.827 56.303 40.1348 56C40.4425 55.697 40.8118 55.5455 41.2427 55.5455C41.6594 55.5455 42.0216 55.697 42.3294 56C42.6419 56.303 42.8005 56.6676 42.8052 57.0938C42.8005 57.3826 42.7247 57.6454 42.5779 57.8821C42.4359 58.1188 42.2465 58.3082 42.0098 58.4503C41.7778 58.5876 41.5221 58.6562 41.2427 58.6562ZM52.4128 53.9119V47.5909H54.9838V58.5H52.4909V56.5611H52.3773C52.1311 57.1719 51.7263 57.6714 51.1628 58.0597C50.6041 58.4479 49.9152 58.642 49.0961 58.642C48.3811 58.642 47.749 58.4834 47.1998 58.1662C46.6552 57.8442 46.2291 57.3778 45.9213 56.767C45.6136 56.1515 45.4597 55.4081 45.4597 54.5369V47.5909H48.0307V54.1392C48.0307 54.8305 48.2201 55.3797 48.5989 55.7869C48.9777 56.1941 49.4748 56.3977 50.0904 56.3977C50.4692 56.3977 50.8361 56.3054 51.1912 56.1207C51.5463 55.9361 51.8375 55.6615 52.0648 55.2969C52.2968 54.9276 52.4128 54.4659 52.4128 53.9119ZM66.2498 50.4744L63.9061 50.7301C63.8398 50.4934 63.7238 50.2708 63.5581 50.0625C63.3971 49.8542 63.1793 49.6861 62.9047 49.5582C62.63 49.4304 62.2939 49.3665 61.8961 49.3665C61.3611 49.3665 60.9113 49.4825 60.5467 49.7145C60.1868 49.9465 60.0093 50.2472 60.014 50.6165C60.0093 50.9337 60.1253 51.1918 60.362 51.3906C60.6035 51.5895 61.0012 51.7528 61.5552 51.8807L63.416 52.2784C64.4482 52.5009 65.2153 52.8537 65.7172 53.3366C66.2238 53.8196 66.4795 54.4517 66.4842 55.233C66.4795 55.9195 66.2782 56.5256 65.8805 57.0511C65.4875 57.572 64.9406 57.9792 64.2399 58.2727C63.5391 58.5663 62.7342 58.7131 61.8251 58.7131C60.4899 58.7131 59.4151 58.4337 58.6007 57.875C57.7863 57.3116 57.301 56.5279 57.1447 55.5241L59.6518 55.2827C59.7654 55.7751 60.0069 56.1468 60.3762 56.3977C60.7456 56.6487 61.2261 56.7741 61.818 56.7741C62.4288 56.7741 62.9189 56.6487 63.2882 56.3977C63.6622 56.1468 63.8493 55.8366 63.8493 55.4673C63.8493 55.1548 63.7285 54.8968 63.487 54.6932C63.2503 54.4896 62.881 54.3333 62.3791 54.2244L60.5183 53.8338C59.4719 53.616 58.6977 53.2491 58.1958 52.733C57.694 52.2121 57.4454 51.554 57.4501 50.7585C57.4454 50.0862 57.6277 49.5038 57.997 49.0114C58.371 48.5142 58.8895 48.1307 59.5524 47.8608C60.22 47.5862 60.9894 47.4489 61.8606 47.4489C63.139 47.4489 64.1452 47.7211 64.8791 48.2656C65.6177 48.8101 66.0746 49.5464 66.2498 50.4744Z" fill="black"/>
<rect x="24.5" y="12.5" width="24" height="24" rx="8" fill="#1F1919"/>
<path d="M42.7861 32.5L39.5099 27.3571H44.2147V25.4143H28.7861V27.3571H33.4909L30.2147 32.5H32.6528L36.5004 26.4619L40.348 32.5H42.7861ZM44.2147 23.5286V21.5857H39.6052L42.8433 16.5H40.3861L36.5004 22.6333L32.6147 16.5H30.1576L33.3957 21.5857H28.7861V23.5476L44.2147 23.5286Z" fill="white"/>
</svg>
