<svg width="72" height="73" viewBox="0 0 72 73" fill="none" xmlns="http://www.w3.org/2000/svg">
<rect y="0.5" width="72" height="72" rx="12" fill="white"/>
<path d="M24.1172 19.2807C24.4675 20.0234 25.3224 21.4949 25.3224 21.4949L35.3007 5L25.5607 11.797C24.9861 12.1894 24.5096 12.7079 24.1732 13.3246C23.2903 15.2165 23.2623 17.3887 24.1172 19.2807Z" fill="url(#paint0_linear_41_284)"/>
<path d="M20.1645 24.7181C20.3888 27.9134 21.9724 30.8564 24.523 32.7904L35.3001 40.3022C35.3001 40.3022 28.5592 30.5902 22.8833 20.9343C22.3087 19.9112 21.9163 18.8041 21.7482 17.6409C21.6641 17.1223 21.6641 16.5898 21.7482 16.0573C21.594 16.3375 21.3137 16.8981 21.3137 16.8981C20.7391 18.0753 20.3467 19.3226 20.1505 20.6119C20.0244 21.9713 20.0244 23.3447 20.1645 24.7181Z" fill="#A0A8D4"/>
<path d="M47.6337 26.0079C47.2833 25.2652 46.4284 23.7936 46.4284 23.7936L36.4502 40.2886L46.1902 33.4916C46.7648 33.0992 47.2413 32.5807 47.5776 31.964C48.4745 30.0861 48.4886 27.9139 47.6337 26.0079Z" fill="url(#paint1_linear_41_284)"/>
<path d="M51.5844 20.584C51.3602 17.3887 49.7766 14.4597 47.2259 12.5117L36.4629 5C36.4629 5 43.1898 14.712 48.8796 24.3679C49.4542 25.3909 49.8326 26.5121 50.0148 27.6613C50.0989 28.1798 50.0989 28.7124 50.0148 29.2449C50.155 28.9646 50.4493 28.404 50.4493 28.404C51.0238 27.2268 51.4162 25.9795 51.6125 24.6762C51.7386 23.3308 51.7246 21.9574 51.5844 20.584Z" fill="#A0A8D4"/>
<path d="M24.1867 13.3386C24.523 12.722 24.9855 12.2035 25.5741 11.8111L35.3141 5.0141L25.3359 21.509C25.3359 21.509 24.467 20.0375 24.1306 19.2948C23.2617 17.3888 23.2898 15.2166 24.1867 13.3386ZM20.1645 24.7183C20.3888 27.9136 21.9724 30.8566 24.523 32.7906L35.3001 40.3023C35.3001 40.3023 28.5592 30.5904 22.8833 20.9344C22.3087 19.9114 21.9163 18.8043 21.7482 17.6411C21.6641 17.1225 21.6641 16.59 21.7482 16.0574C21.594 16.3377 21.3137 16.8983 21.3137 16.8983C20.7391 18.0755 20.3467 19.3228 20.1505 20.6121C20.0244 21.9715 20.0244 23.3449 20.1645 24.7183ZM47.6187 26.0217C47.2684 25.2789 46.4135 23.8074 46.4135 23.8074L36.4493 40.2883L46.1893 33.4913C46.7639 33.0989 47.2404 32.5804 47.5767 31.9638C48.4736 30.0858 48.5016 27.9136 47.6468 26.0077L47.6187 26.0217ZM51.5708 20.5981C51.3466 17.4028 49.7629 14.4738 47.2123 12.5258L36.4633 5.0141C36.4633 5.0141 43.1902 14.7261 48.88 24.382C49.4546 25.405 49.833 26.5262 50.0152 27.6754C50.0993 28.1939 50.0993 28.7264 50.0152 29.259C50.1553 28.9787 50.4496 28.4181 50.4496 28.4181C51.0242 27.2409 51.4166 25.9936 51.6128 24.6903C51.725 23.3169 51.7109 21.9435 51.5848 20.5841L51.5708 20.5981Z" fill="url(#paint2_linear_41_284)"/>
<path d="M10 68.6075V49.5199C10 49.4638 10.042 49.4358 10.0981 49.4358H22.2205C22.2766 49.4358 22.3187 49.4779 22.3187 49.5339V51.9584C22.3187 52.0145 22.2766 52.0565 22.2205 52.0565H12.929V57.6763H20.8331C20.8892 57.6763 20.9312 57.7183 20.9312 57.7744V60.1708C20.9312 60.2269 20.8892 60.2689 20.8331 60.2689H12.929V66.0569H22.2205C22.2766 66.0569 22.3187 66.0989 22.3187 66.155V68.5795C22.3187 68.6355 22.2766 68.6776 22.2205 68.6776H10.0981C10.042 68.7056 10 68.6636 10 68.6075ZM40.145 68.6636L31.2739 55.1537V68.6075C31.2739 68.6636 31.2318 68.7056 31.1757 68.7056H28.4429C28.3869 68.7056 28.3448 68.6636 28.3448 68.6075V49.5479C28.3448 49.4919 28.3869 49.4498 28.4429 49.4498H30.9795C31.0076 49.4498 31.0496 49.4638 31.0636 49.4919L39.9488 62.9737V49.5479C39.9488 49.4919 39.9908 49.4498 40.0469 49.4498H42.7797C42.8357 49.4498 42.8778 49.4919 42.8778 49.5479V68.6075C42.8778 68.6636 42.8357 68.7056 42.7797 68.7056H40.229C40.187 68.7056 40.159 68.6916 40.145 68.6636ZM51.8049 65.0058V65.9167C52.9821 66.169 54.1734 66.3092 55.3646 66.3372C56.5558 66.3092 57.733 66.169 58.8822 65.9167V61.6003L48.96 58.1388C48.918 58.1247 48.9039 58.0827 48.8899 58.0547V50.1225C48.8899 50.0805 48.918 50.0384 48.96 50.0384C51.0341 49.4638 53.1643 49.1555 55.3085 49.1275C57.4668 49.1555 59.611 49.4638 61.6851 50.0384C61.7271 50.0525 61.7552 50.0945 61.7552 50.1225V53.1216C61.7552 53.1777 61.7131 53.2197 61.6571 53.2197H58.9663C58.9102 53.2197 58.8682 53.1777 58.8682 53.1216V52.2107C56.5418 51.6641 54.1173 51.6641 51.7769 52.2107L51.7909 56.2889L61.6851 59.7504C61.7271 59.7644 61.7411 59.8065 61.7552 59.8345V68.0049C61.7552 68.0469 61.7271 68.089 61.6851 68.089C59.611 68.6636 57.4808 68.9719 55.3366 68.9999C53.1783 68.9719 51.0341 68.6636 48.96 68.089C48.918 68.075 48.8899 68.0329 48.8899 68.0049V65.0058C48.8899 64.9498 48.932 64.9077 48.988 64.9077H51.6788C51.7349 64.8937 51.7909 64.9217 51.8049 64.9778C51.8049 64.9918 51.819 64.9918 51.8049 65.0058Z" fill="black"/>
<defs>
<linearGradient id="paint0_linear_41_284" x1="35.7393" y1="5.41746" x2="22.9366" y2="19.2978" gradientUnits="userSpaceOnUse">
<stop offset="0.58" stop-color="#A0A8D4"/>
<stop offset="0.73" stop-color="#8791C7"/>
<stop offset="0.91" stop-color="#6470B4"/>
</linearGradient>
<linearGradient id="paint1_linear_41_284" x1="36.0152" y1="39.8859" x2="48.8216" y2="26.0073" gradientUnits="userSpaceOnUse">
<stop offset="0.58" stop-color="#A0A8D4"/>
<stop offset="0.73" stop-color="#8791C7"/>
<stop offset="0.91" stop-color="#6470B4"/>
</linearGradient>
<linearGradient id="paint2_linear_41_284" x1="35.8763" y1="4.84032" x2="35.8763" y2="40.3976" gradientUnits="userSpaceOnUse">
<stop stop-color="#513EFF"/>
<stop offset="0.18" stop-color="#5157FF"/>
<stop offset="0.57" stop-color="#5298FF"/>
<stop offset="1" stop-color="#52E5FF"/>
</linearGradient>
</defs>
</svg>
