<svg width="73" height="73" viewBox="0 0 73 73" fill="none" xmlns="http://www.w3.org/2000/svg">
<rect x="1" y="0.5" width="72" height="72" rx="12" fill="white"/>
<path d="M22.5503 7H50.929V47H46.7633V28.6774H46.7225C46.2621 23.6135 41.9684 19.6452 36.7396 19.6452C31.5109 19.6452 27.2172 23.6135 26.7568 28.6774H26.716V47H22.5503V7Z" fill="#8A63D2"/>
<path d="M15 12.6774L16.6923 18.3548H18.1243V41.3226C17.4053 41.3226 16.8225 41.9003 16.8225 42.6129V44.1613H16.5621C15.8432 44.1613 15.2604 44.739 15.2604 45.4516V47H29.8402V45.4516C29.8402 44.739 29.2574 44.1613 28.5385 44.1613H28.2781V42.6129C28.2781 41.9003 27.6953 41.3226 26.9763 41.3226H25.4142V12.6774H15Z" fill="#8A63D2"/>
<path d="M47.0237 41.3226C46.3047 41.3226 45.7219 41.9003 45.7219 42.6129V44.1613H45.4615C44.7426 44.1613 44.1598 44.739 44.1598 45.4516V47H58.7396V45.4516C58.7396 44.739 58.1568 44.1613 57.4379 44.1613H57.1775V42.6129C57.1775 41.9003 56.5947 41.3226 55.8757 41.3226V18.3548H57.3077L59 12.6774H48.5858V41.3226H47.0237Z" fill="#8A63D2"/>
<path d="M2.49698 63V52.0909H9.71999V53.9925H4.80344V56.592H9.24059V58.4936H4.80344V63H2.49698ZM13.4593 63.1545C12.9373 63.1545 12.4721 63.0639 12.0637 62.8828C11.6554 62.6982 11.3322 62.4265 11.0943 62.0678C10.8599 61.7056 10.7427 61.2546 10.7427 60.7148C10.7427 60.2603 10.8262 59.8786 10.9931 59.5696C11.16 59.2607 11.3873 59.0121 11.6749 58.8239C11.9625 58.6357 12.2892 58.4936 12.655 58.3977C13.0243 58.3018 13.4114 58.2344 13.8162 58.1953C14.2921 58.1456 14.6756 58.0994 14.9668 58.0568C15.258 58.0107 15.4693 57.9432 15.6007 57.8544C15.7321 57.7656 15.7978 57.6342 15.7978 57.4602V57.4283C15.7978 57.0909 15.6912 56.8299 15.4782 56.6452C15.2686 56.4606 14.9703 56.3683 14.5833 56.3683C14.1749 56.3683 13.85 56.4588 13.6085 56.6399C13.367 56.8175 13.2072 57.0412 13.1291 57.3111L11.0304 57.1406C11.1369 56.6435 11.3464 56.2138 11.6589 55.8516C11.9714 55.4858 12.3745 55.2053 12.8681 55.0099C13.3652 54.8111 13.9405 54.7116 14.5939 54.7116C15.0485 54.7116 15.4835 54.7649 15.899 54.8714C16.318 54.978 16.6891 55.1431 17.0123 55.3668C17.339 55.5906 17.5964 55.8782 17.7846 56.2298C17.9728 56.5778 18.0669 56.995 18.0669 57.4815V63H15.915V61.8654H15.851C15.7196 62.1211 15.5439 62.3466 15.3237 62.5419C15.1035 62.7337 14.839 62.8846 14.53 62.9947C14.2211 63.1012 13.8642 63.1545 13.4593 63.1545ZM14.1092 61.5884C14.443 61.5884 14.7377 61.5227 14.9934 61.3913C15.2491 61.2564 15.4498 61.0753 15.5953 60.848C15.7409 60.6207 15.8137 60.3633 15.8137 60.0756V59.2074C15.7427 59.2536 15.6451 59.2962 15.5208 59.3352C15.4 59.3707 15.2633 59.4045 15.1106 59.4364C14.9579 59.4648 14.8052 59.4915 14.6525 59.5163C14.4998 59.5376 14.3613 59.5572 14.237 59.5749C13.9707 59.614 13.7381 59.6761 13.5392 59.7614C13.3404 59.8466 13.1859 59.962 13.0758 60.1076C12.9657 60.2496 12.9107 60.4272 12.9107 60.6403C12.9107 60.9492 13.0225 61.1854 13.2463 61.3487C13.4735 61.5085 13.7612 61.5884 14.1092 61.5884ZM19.8274 63V54.8182H22.0273V56.2457H22.1126C22.2617 55.7379 22.5121 55.3544 22.8636 55.0952C23.2152 54.8324 23.62 54.701 24.0781 54.701C24.1918 54.701 24.3143 54.7081 24.4457 54.7223C24.5771 54.7365 24.6925 54.756 24.7919 54.7809V56.7944C24.6854 56.7624 24.538 56.734 24.3498 56.7092C24.1616 56.6843 23.9893 56.6719 23.8331 56.6719C23.4993 56.6719 23.201 56.7447 22.9382 56.8903C22.679 57.0323 22.473 57.2312 22.3203 57.4869C22.1712 57.7425 22.0966 58.0373 22.0966 58.3711V63H19.8274ZM29.281 63.1598C28.4429 63.1598 27.722 62.9822 27.1183 62.6271C26.5182 62.2685 26.0566 61.7713 25.7334 61.1357C25.4138 60.5 25.254 59.7685 25.254 58.9411C25.254 58.103 25.4156 57.3679 25.7387 56.7358C26.0654 56.1001 26.5289 55.6048 27.129 55.2496C27.7291 54.891 28.4429 54.7116 29.2703 54.7116C29.9841 54.7116 30.6091 54.8413 31.1453 55.1005C31.6816 55.3597 32.1059 55.7237 32.4184 56.1925C32.7309 56.6612 32.9031 57.2116 32.9351 57.8438H30.7938C30.7334 57.4354 30.5736 57.1069 30.3144 56.8583C30.0587 56.6062 29.7231 56.4801 29.3076 56.4801C28.9561 56.4801 28.6489 56.576 28.3861 56.7678C28.1269 56.956 27.9244 57.2312 27.7789 57.5934C27.6333 57.9556 27.5605 58.3942 27.5605 58.9091C27.5605 59.4311 27.6315 59.875 27.7735 60.2408C27.9191 60.6065 28.1233 60.8853 28.3861 61.0771C28.6489 61.2688 28.9561 61.3647 29.3076 61.3647C29.5669 61.3647 29.7994 61.3114 30.0054 61.2049C30.2149 61.0984 30.3872 60.9439 30.5221 60.7415C30.6606 60.5355 30.7512 60.2887 30.7938 60.0011H32.9351C32.8996 60.6261 32.7291 61.1765 32.4237 61.6523C32.1219 62.1246 31.7046 62.494 31.172 62.7603C30.6393 63.0266 30.009 63.1598 29.281 63.1598ZM36.7211 63.1545C36.199 63.1545 35.7338 63.0639 35.3255 62.8828C34.9171 62.6982 34.5939 62.4265 34.356 62.0678C34.1216 61.7056 34.0044 61.2546 34.0044 60.7148C34.0044 60.2603 34.0879 59.8786 34.2548 59.5696C34.4217 59.2607 34.649 59.0121 34.9366 58.8239C35.2243 58.6357 35.551 58.4936 35.9167 58.3977C36.286 58.3018 36.6731 58.2344 37.0779 58.1953C37.5538 58.1456 37.9373 58.0994 38.2285 58.0568C38.5197 58.0107 38.731 57.9432 38.8624 57.8544C38.9938 57.7656 39.0595 57.6342 39.0595 57.4602V57.4283C39.0595 57.0909 38.9529 56.8299 38.7399 56.6452C38.5304 56.4606 38.2321 56.3683 37.845 56.3683C37.4366 56.3683 37.1117 56.4588 36.8702 56.6399C36.6287 56.8175 36.4689 57.0412 36.3908 57.3111L34.2921 57.1406C34.3986 56.6435 34.6081 56.2138 34.9206 55.8516C35.2331 55.4858 35.6362 55.2053 36.1298 55.0099C36.627 54.8111 37.2022 54.7116 37.8556 54.7116C38.3102 54.7116 38.7452 54.7649 39.1607 54.8714C39.5797 54.978 39.9508 55.1431 40.274 55.3668C40.6007 55.5906 40.8581 55.8782 41.0463 56.2298C41.2346 56.5778 41.3287 56.995 41.3287 57.4815V63H39.1767V61.8654H39.1127C38.9814 62.1211 38.8056 62.3466 38.5854 62.5419C38.3652 62.7337 38.1007 62.8846 37.7917 62.9947C37.4828 63.1012 37.1259 63.1545 36.7211 63.1545ZM37.3709 61.5884C37.7047 61.5884 37.9995 61.5227 38.2551 61.3913C38.5108 61.2564 38.7115 61.0753 38.8571 60.848C39.0027 60.6207 39.0755 60.3633 39.0755 60.0756V59.2074C39.0044 59.2536 38.9068 59.2962 38.7825 59.3352C38.6618 59.3707 38.525 59.4045 38.3723 59.4364C38.2196 59.4648 38.0669 59.4915 37.9142 59.5163C37.7615 59.5376 37.623 59.5572 37.4988 59.5749C37.2324 59.614 36.9998 59.6761 36.801 59.7614C36.6021 59.8466 36.4476 59.962 36.3375 60.1076C36.2275 60.2496 36.1724 60.4272 36.1724 60.6403C36.1724 60.9492 36.2843 61.1854 36.508 61.3487C36.7353 61.5085 37.0229 61.5884 37.3709 61.5884ZM49.8967 57.1513L47.8192 57.2791C47.7837 57.1016 47.7074 56.9418 47.5902 56.7997C47.473 56.6541 47.3185 56.5387 47.1268 56.4535C46.9386 56.3647 46.7131 56.3203 46.4503 56.3203C46.0987 56.3203 45.8022 56.3949 45.5607 56.544C45.3192 56.6896 45.1985 56.8849 45.1985 57.13C45.1985 57.3253 45.2766 57.4904 45.4329 57.6254C45.5891 57.7603 45.8572 57.8686 46.2372 57.9503L47.718 58.2486C48.5135 58.4119 49.1065 58.6747 49.4972 59.0369C49.8878 59.3991 50.0831 59.875 50.0831 60.4645C50.0831 61.0007 49.9251 61.4712 49.609 61.8761C49.2965 62.2809 48.8668 62.5969 48.32 62.8242C47.7766 63.0479 47.1499 63.1598 46.4396 63.1598C45.3565 63.1598 44.4936 62.9343 43.8509 62.4833C43.2116 62.0288 42.837 61.4109 42.7269 60.6296L44.9588 60.5124C45.0263 60.8427 45.1896 61.0948 45.4489 61.2688C45.7081 61.4393 46.0401 61.5245 46.445 61.5245C46.8427 61.5245 47.1623 61.4482 47.4038 61.2955C47.6488 61.1392 47.7731 60.9386 47.7766 60.6935C47.7731 60.4876 47.6861 60.3189 47.5156 60.1875C47.3452 60.0526 47.0824 59.9496 46.7273 59.8786L45.3104 59.5962C44.5114 59.4364 43.9165 59.1594 43.5259 58.7653C43.1388 58.3711 42.9453 57.8686 42.9453 57.2578C42.9453 56.7322 43.0874 56.2795 43.3714 55.8995C43.6591 55.5195 44.0621 55.2266 44.5806 55.0206C45.1026 54.8146 45.7134 54.7116 46.413 54.7116C47.4464 54.7116 48.2596 54.93 48.8526 55.3668C49.4492 55.8036 49.7972 56.3984 49.8967 57.1513ZM55.8639 54.8182V56.5227H50.9367V54.8182H55.8639ZM52.0553 52.858H54.3245V60.4858C54.3245 60.6953 54.3564 60.8587 54.4204 60.9759C54.4843 61.0895 54.5731 61.1694 54.6867 61.2156C54.8039 61.2617 54.9388 61.2848 55.0915 61.2848C55.1981 61.2848 55.3046 61.2759 55.4111 61.2582C55.5177 61.2369 55.5993 61.2209 55.6562 61.2102L56.0131 62.8988C55.8994 62.9343 55.7396 62.9751 55.5336 63.0213C55.3277 63.071 55.0773 63.1012 54.7826 63.1119C54.2357 63.1332 53.7563 63.0604 53.3444 62.8935C52.936 62.7266 52.6182 62.4673 52.3909 62.1158C52.1636 61.7642 52.0518 61.3203 52.0553 60.7841V52.858ZM60.9829 63.1598C60.1412 63.1598 59.4168 62.9893 58.8096 62.6484C58.2059 62.304 57.7407 61.8175 57.414 61.1889C57.0873 60.5568 56.9239 59.8093 56.9239 58.9464C56.9239 58.1048 57.0873 57.3661 57.414 56.7305C57.7407 56.0948 58.2006 55.5994 58.7936 55.2443C59.3902 54.8892 60.0898 54.7116 60.8923 54.7116C61.4321 54.7116 61.9346 54.7987 62.3998 54.9727C62.8685 55.1431 63.2769 55.4006 63.6249 55.745C63.9765 56.0895 64.2499 56.5227 64.4452 57.0447C64.6405 57.5632 64.7382 58.1705 64.7382 58.8665V59.4897H57.8295V58.0835H62.6022C62.6022 57.7567 62.5312 57.4673 62.3891 57.2152C62.2471 56.9631 62.05 56.766 61.7979 56.6239C61.5493 56.4783 61.2599 56.4055 60.9296 56.4055C60.5851 56.4055 60.2797 56.4854 60.0134 56.6452C59.7506 56.8015 59.5447 57.0128 59.3955 57.2791C59.2464 57.5419 59.17 57.8349 59.1665 58.158V59.495C59.1665 59.8999 59.241 60.2496 59.3902 60.5444C59.5429 60.8391 59.7577 61.0664 60.0347 61.2262C60.3117 61.386 60.6402 61.4659 61.0202 61.4659C61.2723 61.4659 61.5031 61.4304 61.7126 61.3594C61.9221 61.2884 62.1015 61.1818 62.2506 61.0398C62.3998 60.8977 62.5134 60.7237 62.5915 60.5178L64.6903 60.6562C64.5837 61.1605 64.3653 61.6009 64.0351 61.9773C63.7084 62.3501 63.2858 62.6413 62.7673 62.8509C62.2524 63.0568 61.6576 63.1598 60.9829 63.1598ZM66.219 63V54.8182H68.4189V56.2457H68.5042C68.6533 55.7379 68.9037 55.3544 69.2552 55.0952C69.6068 54.8324 70.0116 54.701 70.4697 54.701C70.5834 54.701 70.7059 54.7081 70.8373 54.7223C70.9687 54.7365 71.0841 54.756 71.1835 54.7809V56.7944C71.077 56.7624 70.9296 56.734 70.7414 56.7092C70.5532 56.6843 70.3809 56.6719 70.2247 56.6719C69.8909 56.6719 69.5926 56.7447 69.3298 56.8903C69.0706 57.0323 68.8646 57.2312 68.7119 57.4869C68.5628 57.7425 68.4882 58.0373 68.4882 58.3711V63H66.219Z" fill="#8A63D2"/>
</svg>
