<svg width="412" height="416" viewBox="0 0 412 416" fill="none" xmlns="http://www.w3.org/2000/svg">
<path d="M294.865 78.0459C315.971 78.2671 330.478 86.5444 340.439 100.139C350.443 113.792 355.912 132.884 358.698 154.785C361.481 176.67 361.571 201.244 360.905 225.78C360.631 235.871 360.229 245.969 359.834 255.865C359.271 269.99 358.724 283.707 358.591 296.412C358.365 317.961 353.899 329.703 346.376 335.484C338.841 341.274 327.89 341.366 313.905 338.635C305.1 336.916 295.278 334.122 284.563 331.075C278.276 329.287 271.682 327.412 264.805 325.614C246.27 320.77 225.822 316.538 204.291 316.312C182.76 316.087 162.229 319.889 143.596 324.343C136.683 325.996 130.051 327.733 123.728 329.389C112.951 332.211 103.073 334.798 94.2345 336.332C80.1948 338.769 69.2481 338.448 61.8364 332.501C54.4361 326.563 50.2173 314.731 50.4432 293.182C50.6668 271.854 60.6485 247.68 76.9609 223.369C93.2605 199.076 115.816 174.743 141.033 153.119C166.249 131.495 194.099 112.602 220.969 99.1766C247.859 85.7414 273.681 77.8238 294.865 78.0459Z" stroke="url(#paint0_angular_418_1182)" stroke-width="2"/>
<path d="M308.489 88.6537C329.443 91.2141 342.961 101.05 351.381 115.667C359.838 130.348 363.195 149.93 363.579 172.008C363.963 194.069 361.377 218.505 358.044 242.82C356.673 252.819 355.173 262.811 353.703 272.604C351.606 286.582 349.569 300.155 348.053 312.769C345.482 334.163 339.765 345.338 331.658 350.25C323.539 355.17 312.644 354.047 299.041 349.782C290.477 347.096 281.019 343.231 270.7 339.013C264.647 336.539 258.297 333.944 251.657 331.395C233.762 324.524 213.9 318.051 192.524 315.439C171.149 312.827 150.328 314.329 131.324 316.691C124.272 317.567 117.492 318.558 111.027 319.502C100.008 321.113 89.9086 322.588 80.9564 323.133C66.7366 323.999 55.8913 322.466 49.1721 315.733C42.4633 309.01 39.5584 296.782 42.1291 275.388C44.6735 254.213 57.2264 231.292 76.0867 208.936C94.9322 186.598 120 164.913 147.418 146.215C174.835 127.518 204.573 111.828 232.742 101.463C260.931 91.0904 287.458 86.0839 308.489 88.6537Z" stroke="url(#paint1_angular_418_1182)" stroke-width="2"/>
<path d="M320.909 100.75C341.456 105.626 353.817 116.907 360.589 132.372C367.39 147.904 368.588 167.741 366.558 189.727C364.529 211.697 359.29 235.697 353.321 259.493C350.866 269.279 348.284 279.043 345.754 288.614C342.142 302.273 338.635 315.537 335.75 327.906C330.858 348.883 323.956 359.354 315.362 363.335C306.754 367.322 296.049 364.993 282.995 359.24C274.776 355.618 265.798 350.724 256.004 345.384C250.257 342.251 244.23 338.965 237.909 335.693C220.874 326.873 201.841 318.229 180.881 313.255C159.922 308.281 139.065 307.458 119.918 307.691C112.815 307.777 105.967 308.008 99.4389 308.228C88.3115 308.602 78.1123 308.945 69.1553 308.491C54.9279 307.769 44.316 305.039 38.3733 297.599C32.4399 290.171 30.8885 277.693 35.7805 256.715C40.6222 235.953 55.602 214.568 76.789 194.446C97.9593 174.34 125.243 155.576 154.536 140.042C183.827 124.509 215.097 112.222 244.226 105.054C273.375 97.8808 300.288 95.8561 320.909 100.75Z" stroke="url(#paint2_angular_418_1182)" stroke-width="2"/>
<path d="M330.737 112.544C350.714 119.42 361.926 131.864 367.171 147.922C372.439 164.05 371.713 183.91 367.568 205.592C363.425 227.258 355.892 250.627 347.651 273.723C344.262 283.221 340.749 292.684 337.306 301.96C332.391 315.199 327.619 328.055 323.553 340.081C316.657 360.478 308.775 370.219 299.838 373.335C290.886 376.455 280.456 373.084 268.02 366.073C260.191 361.659 251.73 355.904 242.498 349.626C237.082 345.942 231.401 342.079 225.427 338.2C209.326 327.745 191.219 317.268 170.841 310.255C150.462 303.241 129.785 300.369 110.708 298.716C103.63 298.103 96.7926 297.658 90.2745 297.234C79.1641 296.511 68.9805 295.849 60.1103 294.515C46.0206 292.396 35.723 288.634 30.5275 280.644C25.3406 272.667 25.0026 260.097 31.8986 239.7C38.7237 219.514 55.6985 199.705 78.7289 181.764C101.741 163.838 130.707 147.848 161.362 135.272C192.014 122.696 224.322 113.546 254.004 109.279C283.708 105.009 310.687 105.643 330.737 112.544Z" stroke="url(#paint3_angular_418_1182)" stroke-width="2"/>
<path d="M340.751 127.541C359.818 136.679 369.545 150.337 372.935 166.895C376.339 183.525 373.366 203.171 366.79 224.232C360.219 245.278 350.086 267.625 339.281 289.618C334.838 298.662 330.275 307.658 325.802 316.475C319.419 329.06 313.22 341.281 307.818 352.759C298.655 372.225 289.721 380.992 280.49 383.055C271.242 385.122 261.263 380.568 249.704 372.167C242.427 366.878 234.673 360.184 226.214 352.88C221.251 348.595 216.045 344.101 210.551 339.558C195.741 327.312 178.941 314.814 159.493 305.493C140.045 296.172 119.829 290.931 101.065 287.086C94.1033 285.66 87.3617 284.428 80.9347 283.254C69.9794 281.254 59.9378 279.419 51.2772 277.07C37.5204 273.338 27.7165 268.411 23.4609 259.873C19.2125 251.35 20.3018 238.823 29.4648 219.357C38.5333 200.091 57.6417 182.372 82.5543 167.208C107.447 152.056 138.035 139.516 169.914 130.562C201.79 121.608 234.923 116.248 264.893 115.437C294.885 114.625 321.615 118.37 340.751 127.541Z" stroke="url(#paint4_angular_418_1182)" stroke-width="2"/>
<path d="M348.784 143.117C366.727 154.337 374.89 169.002 376.436 185.838C377.988 202.747 372.871 221.939 364.017 242.132C355.169 262.311 342.639 283.383 329.48 304.029C324.068 312.519 318.543 320.948 313.128 329.21C305.398 341.001 297.893 352.451 291.26 363.252C280.011 381.571 270.168 389.281 260.767 390.297C251.349 391.314 241.932 385.668 231.37 376.023C224.72 369.95 217.752 362.428 210.149 354.22C205.689 349.406 201.01 344.355 196.05 339.224C182.681 325.393 167.362 311.088 149.061 299.644C130.76 288.2 111.247 280.725 93.0228 274.8C86.2616 272.601 79.6976 270.622 73.4397 268.734C62.7728 265.517 52.9953 262.568 44.6471 259.262C31.3865 254.011 22.1852 248.015 18.8958 239.051C15.6123 230.104 18.0739 217.778 29.3229 199.459C40.4559 181.33 61.3959 165.863 87.8233 153.587C114.23 141.32 146.008 132.287 178.675 126.962C211.339 121.638 244.856 120.027 274.729 122.581C304.624 125.137 330.776 131.857 348.784 143.117Z" stroke="url(#paint5_angular_418_1182)" stroke-width="2"/>
<path d="M354.836 158.823C371.491 171.911 378.058 187.371 377.816 204.278C377.572 221.258 370.457 239.789 359.52 258.915C348.591 278.026 333.905 297.63 318.64 316.742C312.363 324.602 305.978 332.389 299.721 340.02C290.79 350.913 282.118 361.49 274.381 371.516C261.262 388.52 250.661 395.127 241.206 395.125C231.734 395.122 222.967 388.495 213.484 377.767C207.514 371.014 201.38 362.784 194.688 353.805C190.762 348.537 186.644 343.012 182.255 337.377C170.423 322.186 156.704 306.314 139.717 292.965C122.73 279.617 104.119 270.084 86.6253 262.231C80.1352 259.318 73.818 256.643 67.7954 254.093C57.5293 249.746 48.1193 245.762 40.168 241.576C27.5381 234.928 19.0222 227.975 16.6985 218.707C14.3793 209.458 18.129 197.467 31.2489 180.464C44.2334 163.636 66.6874 150.511 94.2607 141.148C121.812 131.793 154.363 126.231 187.405 124.452C220.445 122.673 253.94 124.678 283.374 130.433C312.827 136.192 338.12 145.688 354.836 158.823Z" stroke="url(#paint6_angular_418_1182)" stroke-width="2"/>
<path d="M359.725 177.725C374.651 192.791 379.275 208.953 376.964 225.7C374.643 242.519 365.314 260.021 352.12 277.637C338.935 295.239 321.962 312.862 304.474 329.925C297.282 336.941 289.994 343.872 282.85 350.665C272.654 360.361 262.753 369.776 253.849 378.761C238.748 393.998 227.421 399.232 218.04 398.051C208.639 396.867 200.751 389.196 192.654 377.368C187.557 369.921 182.477 360.989 176.936 351.244C173.686 345.527 170.276 339.531 166.61 333.391C156.73 316.841 145.059 299.379 129.837 284.015C114.616 268.651 97.3154 256.87 80.9178 246.896C74.8345 243.195 68.8934 239.753 63.2293 236.472C53.5743 230.878 44.7242 225.75 37.3465 220.605C25.6276 212.432 18.0275 204.469 16.8563 194.982C15.6874 185.514 20.8761 174.084 35.9766 158.847C50.921 143.767 74.8088 133.543 103.317 127.69C131.801 121.842 164.783 120.382 197.789 122.737C230.793 125.092 263.785 131.259 292.288 140.64C320.81 150.028 344.746 162.606 359.725 177.725Z" stroke="url(#paint7_angular_418_1182)" stroke-width="2"/>
<path d="M362.19 196.086C375.264 212.814 377.978 229.413 373.738 245.771C369.481 262.2 358.183 278.478 343.034 294.411C327.896 310.333 308.994 325.827 289.646 340.704C281.689 346.821 273.646 352.842 265.763 358.743C254.511 367.166 243.585 375.346 233.699 383.216C216.933 396.561 205.077 400.419 195.898 398.137C186.699 395.849 179.755 387.296 173.088 374.591C168.891 366.593 164.884 357.121 160.513 346.788C157.949 340.726 155.259 334.367 152.332 327.836C144.442 310.231 134.881 291.509 121.549 274.45C108.217 257.391 92.405 243.645 77.2794 231.8C71.668 227.405 66.1678 223.284 60.9241 219.355C51.9855 212.657 43.7919 206.518 37.0628 200.535C26.374 191.032 19.7505 182.224 19.6892 172.663C19.6281 163.122 26.1081 152.384 42.8733 139.039C59.4651 125.831 84.3745 118.503 113.365 116.062C142.332 113.624 175.255 116.076 207.759 122.319C240.262 128.562 272.309 138.589 299.525 151.277C326.76 163.974 349.07 179.297 362.19 196.086Z" stroke="url(#paint8_angular_418_1182)" stroke-width="2"/>
<path d="M362.483 215.223C373.453 233.427 374.156 250.237 367.985 265.957C361.788 281.744 348.622 296.522 331.673 310.488C314.737 324.443 294.116 337.514 273.126 349.917C264.494 355.018 255.788 360.012 247.255 364.907C235.076 371.893 223.249 378.678 212.491 385.282C194.249 396.481 182.018 398.862 173.181 395.475C164.324 392.08 158.457 382.74 153.363 369.314C150.157 360.861 147.316 350.969 144.216 340.177C142.398 333.846 140.491 327.206 138.369 320.365C132.649 301.925 125.404 282.172 114.218 263.61C103.031 245.047 88.9847 229.47 75.3917 215.864C70.349 210.816 65.3839 206.053 60.6502 201.512C52.5809 193.772 45.1842 186.676 39.2224 179.915C29.7523 169.175 24.2337 159.622 25.3199 150.122C26.4038 140.644 34.1236 130.777 52.3656 119.578C70.4185 108.496 96.0228 104.264 125.092 105.384C154.138 106.502 186.524 112.959 218.039 123.127C249.553 133.296 280.161 147.165 305.654 163.086C331.165 179.017 351.473 196.954 362.483 215.223Z" stroke="url(#paint9_angular_418_1182)" stroke-width="2"/>
<path d="M360.637 233.253C369.467 252.608 368.254 269.388 360.339 284.291C352.389 299.258 337.631 312.414 319.208 324.326C300.798 336.23 278.829 346.828 256.568 356.721C247.414 360.789 238.198 364.743 229.165 368.618C216.273 374.15 203.753 379.521 192.317 384.837C172.923 393.851 160.503 394.801 152.11 390.413C143.696 386.015 138.929 376.057 135.394 362.129C133.169 353.361 131.471 343.205 129.619 332.125C128.532 325.625 127.392 318.808 126.061 311.767C122.475 292.786 117.522 272.325 108.519 252.591C99.5153 232.856 87.332 215.756 75.375 200.666C70.9393 195.068 66.5483 189.762 62.3619 184.703C55.2255 176.079 48.6838 168.174 43.5296 160.767C35.3425 149.002 30.9453 138.872 33.1039 129.56C35.2575 120.27 44.0468 111.362 63.4401 102.348C82.6322 93.4272 108.547 92.1865 137.297 96.6627C166.023 101.135 197.461 111.297 227.613 125.046C257.762 138.794 286.593 156.115 310.108 174.881C333.639 193.66 351.775 213.829 360.637 233.253Z" stroke="url(#paint10_angular_418_1182)" stroke-width="2"/>
<path d="M357.316 248.909C364.157 269.068 361.266 285.639 351.895 299.656C342.483 313.732 326.481 325.312 306.957 335.279C287.448 345.239 264.528 353.536 241.389 361.102C231.873 364.213 222.308 367.204 212.933 370.136C199.552 374.32 186.558 378.384 174.646 382.503C154.448 389.487 141.997 389.162 134.088 383.939C126.159 378.702 122.416 368.307 120.298 354.089C118.965 345.138 118.296 334.86 117.565 323.648C117.136 317.071 116.687 310.172 116.07 303.031C114.408 283.781 111.535 262.919 104.56 242.364C97.5848 221.81 87.1815 203.552 76.8016 187.317C72.9509 181.294 69.1154 175.566 65.4586 170.105C59.2249 160.796 53.5106 152.262 49.1267 144.366C42.1632 131.824 38.8055 121.296 41.8882 112.252C44.9634 103.23 54.6014 95.2661 74.7992 88.2816C94.7873 81.3697 120.693 82.7855 148.844 90.1788C176.973 97.566 207.228 110.891 235.843 127.653C264.457 144.414 291.399 164.593 312.909 185.668C334.433 206.758 350.451 228.678 357.316 248.909Z" stroke="url(#paint11_angular_418_1182)" stroke-width="2"/>
<path d="M352.767 263.262C357.672 283.989 353.228 300.206 342.575 313.257C331.876 326.364 314.853 336.351 294.477 344.393C274.115 352.43 250.516 358.483 226.768 363.787C217.002 365.968 207.198 368.025 197.589 370.041C183.873 372.918 170.555 375.712 158.308 378.666C137.543 383.675 125.181 382.153 117.801 376.192C110.403 370.216 107.659 359.507 106.895 345.15C106.414 336.111 106.719 325.815 107.051 314.583C107.246 307.995 107.451 301.084 107.512 293.916C107.676 274.593 106.789 253.549 101.788 232.417C96.7872 211.285 88.1572 192.109 79.3591 174.948C76.0954 168.582 72.8187 162.511 69.6948 156.723C64.3694 146.856 59.4878 137.811 55.8702 129.529C50.1238 116.373 47.7764 105.569 51.6998 96.8624C55.6136 88.1773 65.9598 81.1779 86.725 76.1693C107.274 71.2128 132.927 75.1156 160.251 85.1851C187.553 95.2464 216.411 111.423 243.31 130.863C270.209 150.302 295.121 172.984 314.54 196.033C333.973 219.099 347.845 242.462 352.767 263.262Z" stroke="url(#paint12_angular_418_1182)" stroke-width="2"/>
<path d="M347.113 276.632C350.107 297.728 344.202 313.464 332.405 325.471C320.557 337.528 302.695 345.892 281.673 352.008C260.665 358.119 236.615 361.956 212.484 365.032C202.561 366.296 192.612 367.434 182.86 368.549C168.94 370.141 155.423 371.686 142.96 373.49C121.826 376.549 109.655 373.885 102.851 367.264C96.0289 360.626 94.2737 349.708 94.8218 335.34C95.1668 326.295 96.4092 316.071 97.7644 304.917C98.5594 298.374 99.3933 291.512 100.108 284.38C102.033 265.154 103.068 244.117 100.016 222.61C96.9635 201.103 90.1188 181.206 82.9231 163.301C80.2538 156.658 77.5447 150.309 74.9619 144.255C70.5589 133.935 66.5228 124.475 63.6758 115.892C59.1535 102.258 57.8012 91.281 62.502 82.9753C67.191 74.6905 78.1312 68.6816 99.2644 65.6228C120.178 62.5957 145.365 68.8643 171.655 81.4289C197.923 93.9832 225.182 112.771 250.195 134.628C275.206 156.483 297.944 181.382 315.179 206.138C332.425 230.911 344.108 255.463 347.113 276.632Z" stroke="url(#paint13_angular_418_1182)" stroke-width="2"/>
<path d="M339.616 290.498C340.506 311.79 333.072 326.853 320.145 337.609C307.162 348.411 288.562 354.931 267.039 358.896C245.532 362.857 221.223 364.248 196.909 364.875C186.91 365.132 176.898 365.26 167.085 365.386C153.078 365.565 139.475 365.739 126.896 366.277C105.566 367.189 93.72 363.31 87.6055 356.036C81.4755 348.743 80.8106 337.701 82.7791 323.461C84.0183 314.495 86.2671 304.448 88.7203 293.487C90.1594 287.057 91.6688 280.312 93.0861 273.288C96.9065 254.353 100.02 233.525 99.1131 211.817C98.2063 190.11 93.3669 169.622 87.9809 151.08C85.9829 144.201 83.9164 137.61 81.9462 131.326C78.5876 120.613 75.5088 110.793 73.5263 101.966C70.3772 87.9435 70.1189 76.8848 75.6188 69.0946C81.1048 61.3242 92.5851 56.4491 113.915 55.5374C135.023 54.6353 159.463 63.4135 184.375 78.5675C209.268 93.7091 234.529 115.153 257.251 139.424C279.972 163.693 300.129 190.762 314.825 217.133C329.531 243.522 338.724 269.131 339.616 290.498Z" stroke="url(#paint14_angular_418_1182)" stroke-width="2"/>
<defs>
<radialGradient id="paint0_angular_418_1182" cx="0" cy="0" r="1" gradientUnits="userSpaceOnUse" gradientTransform="translate(206.283 208.102) rotate(0.600638) scale(155.939 131.978)">
<stop stop-color="#E6B80B"/>
<stop offset="1" stop-color="white" stop-opacity="0"/>
</radialGradient>
<radialGradient id="paint1_angular_418_1182" cx="0" cy="0" r="1" gradientUnits="userSpaceOnUse" gradientTransform="translate(206.285 208.102) rotate(6.96657) scale(155.957 131.963)">
<stop stop-color="#E6B80B"/>
<stop offset="1" stop-color="white" stop-opacity="0"/>
</radialGradient>
<radialGradient id="paint2_angular_418_1182" cx="0" cy="0" r="1" gradientUnits="userSpaceOnUse" gradientTransform="translate(206.283 208.102) rotate(13.3507) scale(156.008 131.919)">
<stop stop-color="#E6B80B"/>
<stop offset="1" stop-color="white" stop-opacity="0"/>
</radialGradient>
<radialGradient id="paint3_angular_418_1182" cx="0" cy="0" r="1" gradientUnits="userSpaceOnUse" gradientTransform="translate(206.284 208.102) rotate(18.9923) scale(156.08 131.858)">
<stop stop-color="#E6B80B"/>
<stop offset="1" stop-color="white" stop-opacity="0"/>
</radialGradient>
<radialGradient id="paint4_angular_418_1182" cx="0" cy="0" r="1" gradientUnits="userSpaceOnUse" gradientTransform="translate(206.284 208.102) rotate(25.6063) scale(156.193 131.763)">
<stop stop-color="white"/>
<stop offset="1" stop-color="white" stop-opacity="0"/>
</radialGradient>
<radialGradient id="paint5_angular_418_1182" cx="0" cy="0" r="1" gradientUnits="userSpaceOnUse" gradientTransform="translate(206.283 208.102) rotate(32.0183) scale(156.325 131.652)">
<stop stop-color="#E6B80B"/>
<stop offset="1" stop-color="white" stop-opacity="0"/>
</radialGradient>
<radialGradient id="paint6_angular_418_1182" cx="0" cy="0" r="1" gradientUnits="userSpaceOnUse" gradientTransform="translate(206.284 208.102) rotate(38.1601) scale(156.468 131.532)">
<stop stop-color="white"/>
<stop offset="1" stop-color="white" stop-opacity="0"/>
</radialGradient>
<radialGradient id="paint7_angular_418_1182" cx="0" cy="0" r="1" gradientUnits="userSpaceOnUse" gradientTransform="translate(206.283 208.102) rotate(45.2672) scale(156.643 131.384)">
<stop stop-color="#08DFC2"/>
<stop offset="1" stop-color="white" stop-opacity="0"/>
</radialGradient>
<radialGradient id="paint8_angular_418_1182" cx="0" cy="0" r="1" gradientUnits="userSpaceOnUse" gradientTransform="translate(206.282 208.102) rotate(51.9922) scale(156.811 131.244)">
<stop stop-color="#08DFC2"/>
<stop offset="1" stop-color="white" stop-opacity="0"/>
</radialGradient>
<radialGradient id="paint9_angular_418_1182" cx="0" cy="0" r="1" gradientUnits="userSpaceOnUse" gradientTransform="translate(206.284 208.102) rotate(58.9248) scale(156.974 131.107)">
<stop stop-color="#08DFC2"/>
<stop offset="1" stop-color="white" stop-opacity="0"/>
</radialGradient>
<radialGradient id="paint10_angular_418_1182" cx="0" cy="0" r="1" gradientUnits="userSpaceOnUse" gradientTransform="translate(206.281 208.102) rotate(65.4767) scale(157.112 130.992)">
<stop stop-color="#E6B80B"/>
<stop offset="1" stop-color="white" stop-opacity="0"/>
</radialGradient>
<radialGradient id="paint11_angular_418_1182" cx="0" cy="0" r="1" gradientUnits="userSpaceOnUse" gradientTransform="translate(206.284 208.102) rotate(71.2548) scale(157.215 130.907)">
<stop stop-color="#08DFC2"/>
<stop offset="1" stop-color="white" stop-opacity="0"/>
</radialGradient>
<radialGradient id="paint12_angular_418_1182" cx="0" cy="0" r="1" gradientUnits="userSpaceOnUse" gradientTransform="translate(206.284 208.102) rotate(76.6863) scale(157.29 130.844)">
<stop stop-color="#E6B80B"/>
<stop offset="1" stop-color="white" stop-opacity="0"/>
</radialGradient>
<radialGradient id="paint13_angular_418_1182" cx="0" cy="0" r="1" gradientUnits="userSpaceOnUse" gradientTransform="translate(206.284 208.102) rotate(81.9221) scale(157.341 130.802)">
<stop stop-color="#08DFC2"/>
<stop offset="1" stop-color="white" stop-opacity="0"/>
</radialGradient>
<radialGradient id="paint14_angular_418_1182" cx="0" cy="0" r="1" gradientUnits="userSpaceOnUse" gradientTransform="translate(206.283 208.102) rotate(87.6079) scale(157.37 130.778)">
<stop stop-color="#08DFC2"/>
<stop offset="1" stop-color="white" stop-opacity="0"/>
</radialGradient>
</defs>
</svg>
